<svg xmlns="http://www.w3.org/2000/svg" width="17.171" height="17.171" viewBox="0 0 17.171 17.171"><defs><style>.a{fill:#12749e;stroke:#fff;}</style></defs><g transform="translate(0.707 0.807)"><g transform="translate(7.778 88.725) rotate(-135)"><path class="a" d="M15.463,5.537a1.832,1.832,0,0,0-2.592,0L10.5,7.907l-2.37-2.37A1.833,1.833,0,1,0,5.537,8.13l2.37,2.37-2.37,2.37A1.833,1.833,0,1,0,8.13,15.463l2.37-2.371,2.37,2.37a1.833,1.833,0,1,0,2.593-2.593L13.092,10.5l2.37-2.37A1.832,1.832,0,0,0,15.463,5.537Z" transform="translate(46.738 46.738)"/></g></g></svg>