<?xml version="1.0" encoding="UTF-8"?>
<svg width="32px" height="32px" viewBox="0 0 32 32" version="1.1" xmlns="http://www.w3.org/2000/svg" xmlns:xlink="http://www.w3.org/1999/xlink">
    <title>bathrooms</title>
    <g id="Page-1" stroke="none" stroke-width="1" fill="none" fill-rule="evenodd">
        <g id="rpm-wo" transform="translate(-501.000000, -2146.000000)" fill="#002F65" fill-rule="nonzero">
            <g id="Group-3" transform="translate(500.000000, 2000.000000)">
                <g id="bathrooms" transform="translate(17.000000, 162.000002) scale(-1, 1) translate(-17.000000, -162.000002) translate(1.000000, 146.000000)">
                    <path d="M30.6775868,14.8090065 L30.6775868,3.55604585 C30.4754765,-1.18593836 23.4840789,-1.18475884 23.2825684,3.55604585 L23.2825684,5.28316491 C22.8221043,5.38518974 22.3964254,5.6029234 22.0471166,5.91509527 L22.0471166,5.91509527 L20.6167513,7.19222565 C19.5180389,8.12581946 20.2548119,10.0053921 21.7076672,9.96971146 L26.0557378,9.96971146 C27.5073936,10.0050972 28.2468655,8.12611434 27.1466537,7.19222565 C26.4677549,6.63490022 25.39723,5.40495083 24.4808366,5.28316491 L24.4808366,3.55604585 C24.6052814,0.383714146 29.3524748,0.383419265 29.4769196,3.55604585 L29.4769196,14.7706719 L1.67925483,14.7706719 C0.752239057,14.7716471 0.000991638333,15.5104038 0,16.4220065 L0,17.0545266 C0.000367227029,17.6556442 0.332876541,18.2090832 0.868114774,18.4994444 L2.75307832,25.436819 C3.27574628,27.3511948 4.96885351,28.733637 6.97850329,28.8869287 L6.97850329,31.410227 C6.97850329,31.7359437 7.24701329,32 7.57823716,32 L8.68444628,32 C9.60541321,32.0016884 10.4135384,31.3968842 10.6572708,30.5235193 C10.9571378,29.4324589 11.691212,28.9016728 12.9017748,28.9016728 L19.0982252,28.9016728 C20.308788,28.9016728 21.0431621,29.4324589 21.3424293,30.5235193 C21.5863718,31.39687 22.394545,32.0016182 23.3155537,32 L24.4217628,32 C24.7529867,32 25.0214967,31.7359437 25.0214967,31.410227 L25.0214967,28.8872236 C27.0311819,28.7340178 28.7243331,27.3515397 29.2469217,25.4371139 L31.1318852,18.5000342 C31.6671235,18.209673 31.9996328,17.6562339 32,17.0551164 L32,16.4220065 C31.9989101,15.6457297 31.4487913,14.9747279 30.6775868,14.8090065 Z M26.341511,8.06536881 C26.4753856,8.17936026 26.5221254,8.36370235 26.4583435,8.52615686 C26.3945616,8.68861138 26.2339757,8.79423873 26.0569372,8.79018675 L21.7076672,8.79018675 C21.5306288,8.79423873 21.3700429,8.68861138 21.3062609,8.52615686 C21.242479,8.36370235 21.2892189,8.17936026 21.4230935,8.06536881 L22.8534588,6.78823844 L22.8534588,6.78823844 C23.4361408,6.26465258 24.3287636,6.26465258 24.9114455,6.78823844 L26.341511,8.06536881 Z M1.20186667,16.4220065 C1.20186667,16.1614331 1.41667467,15.9501966 1.68165377,15.9501966 L30.3207452,15.9501966 C30.5857243,15.9501966 30.8005323,16.1614331 30.8005323,16.4220065 L30.8005323,17.0545266 C30.8005323,17.3151 30.5857243,17.5263365 30.3207452,17.5263365 L1.68165377,17.5263365 C1.41667467,17.5263365 1.20186667,17.3151 1.20186667,17.0545266 L1.20186667,16.4220065 Z M9.50158367,30.2159582 C9.39989402,30.5751648 9.06600635,30.8227765 8.68684521,30.8201697 L8.18036996,30.8201697 L8.18036996,28.9016728 L10.1558933,28.9016728 C9.85066179,29.2923642 9.62817498,29.7392645 9.50158367,30.2159582 L9.50158367,30.2159582 Z M23.822029,30.8201697 L23.3155537,30.8201697 C22.9362815,30.8229102 22.6022341,30.5752712 22.5005154,30.2159582 C22.3741448,29.7392398 22.1517485,29.2923167 21.8465056,28.9016728 L23.822029,28.9016728 L23.822029,30.8201697 Z M28.087936,25.1322067 C27.6434161,26.7400631 26.1131518,27.8209842 24.4217628,27.7218532 L7.34434095,27.7218532 C5.73714901,27.7204855 4.33087071,26.6587091 3.91446296,25.1322067 L2.16803793,18.7058612 L29.834361,18.7058612 L28.087936,25.1322067 Z" id="Shape"></path>
                </g>
            </g>
        </g>
    </g>
</svg>