<?xml version="1.0" encoding="UTF-8"?>
<svg width="36px" height="37px" viewBox="0 0 36 37" version="1.1" xmlns="http://www.w3.org/2000/svg" xmlns:xlink="http://www.w3.org/1999/xlink">
    <title>email-pdf</title>
    <g id="Page-1" stroke="none" stroke-width="1" fill="none" fill-rule="evenodd">
        <g id="rpm-wo" transform="translate(-503.000000, -2294.000000)">
            <g id="Group-3" transform="translate(500.000000, 2000.000000)">
                <g id="email-pdf" transform="translate(3.000000, 294.000000)">
                    <path d="M14.0522388,4 L13,3.00169419 L14.8656716,1.23164843 C16.5967651,-0.410549476 19.4032349,-0.410549476 21.1343284,1.23164843 L23,3.00169419 L21.9477612,4 L20.0820896,2.22995424 C18.9232042,1.15975071 17.0767958,1.15975071 15.9179104,2.22995424 L14.0522388,4 Z" id="Path" fill="#002F65" fill-rule="nonzero"></path>
                    <polygon id="Rectangle" fill="#002F65" fill-rule="nonzero" transform="translate(6.404816, 21.413052) rotate(-57.160000) translate(-6.404816, -21.413052) " points="5.6931344 14.6378467 7.11649678 14.6378467 7.11649678 28.1882565 5.6931344 28.1882565"></polygon>
                    <polygon id="Rectangle" fill="#002F65" fill-rule="nonzero" transform="translate(29.179572, 21.401541) rotate(-32.840000) translate(-29.179572, -21.401541) " points="22.4043668 20.6898594 35.9547767 20.6898594 35.9547767 22.1132218 22.4043668 22.1132218"></polygon>
                    <path d="M32.9991387,19 L31.5706208,19 L31.5706208,6.57565217 C31.5945916,5.39754268 30.6373002,4.4216793 29.4278441,4.39130435 L6.5715584,4.39130435 C5.98420701,4.40579592 5.42721222,4.64851377 5.02470061,5.0653681 C4.62218899,5.48222244 4.40760962,6.03857227 4.42878162,6.61043478 L4.42878162,20 L3.00026376,19 L3.00026376,6.57565217 C2.97641232,4.62922851 4.57317662,3.03051591 6.5715584,3 L29.4278441,3 C30.3939873,3.01459717 31.3142474,3.40391347 31.9846398,4.08165316 C32.6550322,4.75939285 33.0201779,5.66956991 32.9991387,6.61043478 L32.9991387,19 Z" id="Path" fill="#002F65" fill-rule="nonzero"></path>
                    <path d="M33.9818642,36 L19.6419232,22.0538376 C18.7324181,21.1716869 17.260412,21.1716869 16.3509068,22.0538376 L2.01096584,36 L1,35.0167955 L15.339941,21.0706331 C16.8095862,19.6431223 19.1904138,19.6431223 20.660059,21.0706331 L35,35.0167955 L33.9818642,36 Z" id="Path" fill="#002F65" fill-rule="nonzero"></path>
                    <path d="M32.0325511,37 L3.95305083,37 C2.89198264,36.9887505 1.87901554,36.5610036 1.13751435,35.8110796 C0.39601316,35.0611557 -0.0131235276,34.0506451 0,33.0023711 L0,16.3716657 C-0.000785268393,16.1825942 0.0743455704,16.000867 0.209117462,15.8666271 L3.0890662,13.0213397 L4.10424813,14.0243035 L1.44029555,16.6348548 L1.44029555,32.9952579 C1.4228927,33.6704301 1.68075135,34.3242075 2.15595148,34.8097391 C2.63115161,35.2952706 3.28385452,35.5718515 3.96745057,35.5773563 L32.0469508,35.5773563 C32.7267573,35.5680421 33.3746221,35.2907815 33.8464953,34.8072221 C34.3183685,34.3236627 34.5751358,33.6738874 34.5597061,33.0023711 L34.5597061,16.641968 L31.8885536,14.0029638 L32.9037355,13 L35.7836843,15.8452875 C35.926541,15.9835035 36.0047867,16.1741866 36,16.3716657 L36,33.0023711 C36.0131223,34.0530885 35.6020162,35.0657458 34.8574052,35.8160814 C34.1127942,36.566417 33.0961262,36.9925106 32.0325511,37 L32.0325511,37 Z" id="Path" fill="#002F65" fill-rule="nonzero"></path>
                    <line x1="12.3465" y1="9.17924245" x2="24.920383" y2="9.17924245" id="Path-3" stroke="#002F65" stroke-linecap="round"></line>
                    <line x1="12.3465" y1="15.9792425" x2="24.920383" y2="15.9792425" id="Path-3-Copy" stroke="#002F65" stroke-linecap="round"></line>
                    <line x1="10.4513168" y1="12.5792425" x2="26.4513168" y2="12.5792425" id="Path-4" stroke="#002F65" stroke-linecap="round"></line>
                </g>
            </g>
        </g>
    </g>
</svg>