<svg xmlns="http://www.w3.org/2000/svg" xmlns:xlink="http://www.w3.org/1999/xlink" width="387" height="98.796" viewBox="0 0 387 98.796"><defs><style>.a,.b{fill:none;}.a{clip-rule:evenodd;}.b{fill-rule:evenodd;}.c{clip-path:url(#a);}.d{fill:#c0e1ec;}.e{clip-path:url(#b);}.f{clip-path:url(#c);}.g{clip-path:url(#d);}.h{clip-path:url(#e);}.i{fill:#fffefe;}.j{clip-path:url(#f);}.k{clip-path:url(#g);}.l{clip-path:url(#h);}.m{clip-path:url(#i);}.n{clip-path:url(#j);}.o{clip-path:url(#k);}.p{clip-path:url(#l);}.q{clip-path:url(#m);}.r{fill:#53b0cf;}.s{clip-path:url(#n);}.t{fill:#3991b2;}.u{clip-path:url(#o);}.v{clip-path:url(#p);}.w{clip-path:url(#q);}.x{clip-path:url(#r);}.y{clip-path:url(#s);}.z{clip-path:url(#t);}.aa{clip-path:url(#u);}.ab{clip-path:url(#v);}.ac{fill:#84cce6;}.ad{clip-path:url(#w);}.ae{clip-path:url(#x);}.af{clip-path:url(#y);}.ag{clip-path:url(#z);}.ah{clip-path:url(#aa);}.ai{clip-path:url(#ab);}.aj{clip-path:url(#ac);}.ak{clip-path:url(#ad);}.al{clip-path:url(#ae);}.am{clip-path:url(#af);}.an{clip-path:url(#ag);}.ao{clip-path:url(#ah);}.ap{clip-path:url(#ai);}.aq{clip-path:url(#aj);}.ar{clip-path:url(#ak);}.as{clip-path:url(#al);}.at{clip-path:url(#am);}.au{clip-path:url(#an);}.av{clip-path:url(#ao);}.aw{clip-path:url(#ap);}.ax{clip-path:url(#aq);}.ay{clip-path:url(#ar);}.az{clip-path:url(#as);}.ba{clip-path:url(#at);}.bb{clip-path:url(#au);}.bc{clip-path:url(#av);}.bd{clip-path:url(#aw);}.be{clip-path:url(#ax);}.bf{clip-path:url(#ay);}.bg{clip-path:url(#az);}.bh{clip-path:url(#ba);}.bi{clip-path:url(#bb);}.bj{fill:#15182a;}.bk{clip-path:url(#bc);}.bl{clip-path:url(#bd);}.bm{clip-path:url(#be);}.bn{clip-path:url(#bf);}.bo{clip-path:url(#bg);}.bp{clip-path:url(#bh);}.bq{clip-path:url(#bi);}.br{clip-path:url(#bj);}.bs{clip-path:url(#bk);}.bt{clip-path:url(#bl);}.bu{clip-path:url(#bm);}.bv{clip-path:url(#bn);}.bw{clip-path:url(#bo);}.bx{clip-path:url(#bp);}.by{clip-path:url(#bq);}.bz{clip-path:url(#br);}.ca{clip-path:url(#bs);}.cb{clip-path:url(#bt);}.cc{clip-path:url(#bu);}.cd{clip-path:url(#bv);}.ce{clip-path:url(#bw);}.cf{clip-path:url(#bx);}.cg{clip-path:url(#by);}.ch{clip-path:url(#bz);}.ci{clip-path:url(#ca);}.cj{clip-path:url(#cb);}.ck{clip-path:url(#cc);}.cl{clip-path:url(#cd);}.cm{clip-path:url(#ce);}.cn{clip-path:url(#cf);}.co{clip-path:url(#cg);}.cp{clip-path:url(#ch);}.cq{clip-path:url(#ci);}.cr{clip-path:url(#cj);}.cs{clip-path:url(#ck);}.ct{clip-path:url(#cl);}.cu{clip-path:url(#cm);}.cv{clip-path:url(#cn);}.cw{clip-path:url(#co);}.cx{clip-path:url(#cp);}.cy{clip-path:url(#cq);}.cz{clip-path:url(#cr);}.da{clip-path:url(#cs);}.db{clip-path:url(#ct);}.dc{clip-path:url(#cu);}.dd{clip-path:url(#cv);}.de{clip-path:url(#cw);}.df{clip-path:url(#cx);}.dg{clip-path:url(#cy);}.dh{clip-path:url(#cz);}.di{clip-path:url(#da);}.dj{clip-path:url(#db);}.dk{fill:#e1f2f7;}.dl{clip-path:url(#dc);}.dm{clip-path:url(#dd);}.dn{clip-path:url(#de);}.do{clip-path:url(#df);}.dp{clip-path:url(#dg);}.dq{clip-path:url(#dh);}.dr{clip-path:url(#di);}.ds{clip-path:url(#dj);}.dt{clip-path:url(#dk);}.du{clip-path:url(#dl);}.dv{clip-path:url(#dm);}.dw{clip-path:url(#dn);}.dx{clip-path:url(#do);}.dy{clip-path:url(#dp);}.dz{clip-path:url(#dq);}.ea{clip-path:url(#dr);}.eb{clip-path:url(#ds);}.ec{clip-path:url(#dt);}.ed{clip-path:url(#du);}.ee{clip-path:url(#dv);}.ef{clip-path:url(#dw);}.eg{clip-path:url(#dx);}.eh{clip-path:url(#dy);}.ei{clip-path:url(#dz);}.ej{clip-path:url(#ea);}.ek{clip-path:url(#eb);}.el{clip-path:url(#ec);}.em{clip-path:url(#ed);}.en{clip-path:url(#ee);}.eo{clip-path:url(#ef);}.ep{clip-path:url(#eg);}.eq{clip-path:url(#eh);}.er{clip-path:url(#ei);}.es{clip-path:url(#ej);}.et{clip-path:url(#ek);}.eu{clip-path:url(#el);}.ev{clip-path:url(#em);}.ew{clip-path:url(#en);}.ex{clip-path:url(#eo);}.ey{fill:#fffefd;}.ez{clip-path:url(#ep);}.fa{clip-path:url(#eq);}.fb{clip-path:url(#er);}.fc{clip-path:url(#es);}.fd{clip-path:url(#et);}.fe{clip-path:url(#eu);}.ff{clip-path:url(#ev);}.fg{clip-path:url(#ew);}.fh{clip-path:url(#ex);}.fi{clip-path:url(#ey);}.fj{clip-path:url(#ez);}.fk{clip-path:url(#fa);}.fl{clip-path:url(#fb);}.fm{clip-path:url(#fc);}.fn{clip-path:url(#fd);}.fo{clip-path:url(#fe);}.fp{clip-path:url(#ff);}.fq{clip-path:url(#fg);}.fr{clip-path:url(#fh);}.fs{clip-path:url(#fi);}.ft{clip-path:url(#fj);}.fu{clip-path:url(#fk);}.fv{clip-path:url(#fl);}.fw{clip-path:url(#fm);}.fx{clip-path:url(#fn);}.fy{clip-path:url(#fo);}.fz{clip-path:url(#fp);}.ga{clip-path:url(#fr);}.gb{clip-path:url(#fs);}.gc{clip-path:url(#ft);}.gd{clip-path:url(#fu);}.ge{clip-path:url(#fv);}.gf{clip-path:url(#fw);}.gg{clip-path:url(#fx);}.gh{clip-path:url(#fy);}.gi{clip-path:url(#fz);}.gj{clip-path:url(#ga);}.gk{clip-path:url(#gb);}.gl{clip-path:url(#gc);}.gm{clip-path:url(#gd);}.gn{clip-path:url(#gf);}.go{clip-path:url(#gg);}.gp{clip-path:url(#gh);}.gq{clip-path:url(#gj);}.gr{clip-path:url(#gk);}.gs{clip-path:url(#gl);}.gt{clip-path:url(#gm);}.gu{clip-path:url(#gn);}.gv{clip-path:url(#go);}.gw{clip-path:url(#gp);}.gx{clip-path:url(#gq);}.gy{clip-path:url(#gr);}.gz{clip-path:url(#gs);}.ha{clip-path:url(#gt);}.hb{clip-path:url(#gu);}.hc{clip-path:url(#gv);}.hd{clip-path:url(#gw);}.he{clip-path:url(#gx);}.hf{clip-path:url(#gy);}.hg{clip-path:url(#gz);}.hh{clip-path:url(#ha);}.hi{clip-path:url(#hb);}.hj{clip-path:url(#hc);}.hk{clip-path:url(#hd);}.hl{clip-path:url(#he);}.hm{clip-path:url(#hf);}.hn{clip-path:url(#hg);}.ho{clip-path:url(#hh);}.hp{clip-path:url(#hi);}.hq{clip-path:url(#hj);}.hr{clip-path:url(#hk);}.hs{clip-path:url(#hl);}.ht{clip-path:url(#hm);}.hu{clip-path:url(#hn);}.hv{clip-path:url(#ho);}.hw{clip-path:url(#hp);}.hx{clip-path:url(#hq);}.hy{clip-path:url(#hr);}.hz{clip-path:url(#hs);}.ia{clip-path:url(#ht);}.ib{clip-path:url(#hu);}.ic{clip-path:url(#hv);}.id{clip-path:url(#hw);}.ie{clip-path:url(#hx);}.if{clip-path:url(#hy);}.ig{clip-path:url(#hz);}.ih{clip-path:url(#ia);}.ii{clip-path:url(#ib);}.ij{clip-path:url(#ic);}.ik{clip-path:url(#id);}.il{clip-path:url(#ie);}.im{clip-path:url(#if);}.in{clip-path:url(#ig);}.io{clip-path:url(#ih);}.ip{clip-path:url(#ii);}.iq{clip-path:url(#ij);}.ir{clip-path:url(#ik);}.is{clip-path:url(#il);}.it{clip-path:url(#im);}.iu{clip-path:url(#in);}.iv{clip-path:url(#io);}.iw{clip-path:url(#ip);}.ix{clip-path:url(#iq);}.iy{clip-path:url(#ir);}.iz{clip-path:url(#is);}.ja{clip-path:url(#it);}.jb{clip-path:url(#iu);}.jc{clip-path:url(#iv);}.jd{clip-path:url(#iw);}.je{clip-path:url(#ix);}.jf{clip-path:url(#iy);}.jg{clip-path:url(#iz);}.jh{clip-path:url(#ja);}.ji{clip-path:url(#jb);}.jj{clip-path:url(#jc);}.jk{clip-path:url(#jd);}.jl{clip-path:url(#je);}.jm{clip-path:url(#jf);}.jn{clip-path:url(#jg);}.jo{clip-path:url(#jh);}.jp{clip-path:url(#ji);}.jq{clip-path:url(#jj);}.jr{clip-path:url(#jk);}.js{clip-path:url(#jl);}.jt{clip-path:url(#jm);}.ju{clip-path:url(#jn);}.jv{clip-path:url(#jo);}.jw{clip-path:url(#jp);}.jx{clip-path:url(#jq);}.jy{clip-path:url(#jr);}.jz{clip-path:url(#js);}.ka{clip-path:url(#jt);}.kb{clip-path:url(#ju);}.kc{clip-path:url(#jv);}.kd{clip-path:url(#jw);}.ke{clip-path:url(#jx);}.kf{clip-path:url(#jy);}.kg{clip-path:url(#jz);}.kh{clip-path:url(#ka);}.ki{clip-path:url(#kb);}.kj{clip-path:url(#kc);}.kk{clip-path:url(#kd);}.kl{clip-path:url(#ke);}.km{clip-path:url(#kf);}.kn{clip-path:url(#kg);}.ko{clip-path:url(#kh);}.kp{clip-path:url(#ki);}.kq{clip-path:url(#kj);}.kr{clip-path:url(#kk);}.ks{clip-path:url(#kl);}.kt{clip-path:url(#km);}.ku{clip-path:url(#kn);}.kv{clip-path:url(#ko);}.kw{clip-path:url(#kp);}.kx{clip-path:url(#kq);}.ky{clip-path:url(#kr);}.kz{clip-path:url(#ks);}.la{clip-path:url(#kt);}.lb{clip-path:url(#ku);}.lc{clip-path:url(#kv);}.ld{clip-path:url(#kw);}.le{clip-path:url(#kx);}.lf{clip-path:url(#ky);}.lg{clip-path:url(#kz);}.lh{clip-path:url(#la);}.li{clip-path:url(#lb);}.lj{clip-path:url(#lc);}.lk{clip-path:url(#ld);}.ll{clip-path:url(#le);}.lm{clip-path:url(#lf);}.ln{clip-path:url(#lg);}.lo{clip-path:url(#lh);}.lp{clip-path:url(#li);}.lq{clip-path:url(#lj);}.lr{clip-path:url(#lk);}</style><clipPath id="a"><path class="a" d="M253.189-88.818l5.994-5.994V-97L251-88.818h2.189" transform="translate(-251 97)"/></clipPath><clipPath id="b"><path class="a" d="M240.014-98.181l9.805-9.805V-110L238-98.181h2.014" transform="translate(-238 110)"/></clipPath><clipPath id="c"><path class="a" d="M225.765-108.635l14.3-14.319V-125L224-108.912v.277h1.765" transform="translate(-224 125)"/></clipPath><clipPath id="d"><path class="a" d="M268.262-78.363l1.375-1.375V-82L266-78.363h2.262" transform="translate(-266 82)"/></clipPath><clipPath id="e"><path class="a" d="M152-10.363h52.428V-14H152Z" transform="translate(-152 14)"/></clipPath><clipPath id="f"><path class="a" d="M181-73.24h21.82V-99H181Z" transform="translate(-181 99)"/></clipPath><clipPath id="g"><path class="a" d="M66.095-156.268H17v-47.765L41.534-219l24.561,15.234v47.5" transform="translate(-17 219)"/></clipPath><clipPath id="h"><path class="a" d="M60.58-209.113,31.841-227,3-209.155l1.122,1.55,27.759-17,27.617,17,1.082-1.509" transform="translate(-3 227)"/></clipPath><clipPath id="i"><path class="a" d="M301.095-157.268H252v-47.765L276.534-220l24.561,15.234v47.5" transform="translate(-252 220)"/></clipPath><clipPath id="j"><path class="a" d="M295.58-205.882,266.841-225,238-207.376l1.123,1.531,27.759-16.788L294.5-204.392l1.082-1.49" transform="translate(-238 225)"/></clipPath><clipPath id="k"><path class="a" d="M11-10.363H63.428V-14H11Z" transform="translate(-11 14)"/></clipPath><clipPath id="l"><path class="a" d="M248-10.363h52.428V-14H248Z" transform="translate(-248 14)"/></clipPath><clipPath id="m"><path class="a" d="M180-104.969h22.123V-108H180Z" transform="translate(-180 108)"/></clipPath><clipPath id="n"><path class="a" d="M186-10.363h18.486V-14H186Z" transform="translate(-186 14)"/></clipPath><clipPath id="o"><path class="a" d="M181-97.485h21.82V-99H181Z" transform="translate(-181 99)"/></clipPath><clipPath id="p"><path class="a" d="M247-73.24h1.818V-99H247Z" transform="translate(-247 99)"/></clipPath><clipPath id="q"><path class="a" d="M180-73.24h1.515V-99H180Z" transform="translate(-180 99)"/></clipPath><clipPath id="r"><path class="a" d="M205-41.575h6.667V-54H205Z" transform="translate(-205 54)"/></clipPath><clipPath id="s"><path class="a" d="M223-41.575h.909V-54H223Z" transform="translate(-223 54)"/></clipPath><clipPath id="t"><path class="a" d="M205-53.091h6.667V-54H205Z" transform="translate(-205 54)"/></clipPath><clipPath id="u"><path class="a" d="M205-41.575h.909V-54H205Z" transform="translate(-205 54)"/></clipPath><clipPath id="v"><path class="a" d="M276-67.393h13.637V-78H276Z" transform="translate(-276 78)"/></clipPath><clipPath id="w"><path class="a" d="M276.11-67.393v-9.35h11.417v9.35h1.11V-78H275v10.607h1.11" transform="translate(-275 78)"/></clipPath><clipPath id="x"><path class="a" d="M350-67.393h13.637V-78H350Z" transform="translate(-350 78)"/></clipPath><clipPath id="y"><path class="a" d="M350.11-67.393v-9.35h11.418v9.35h1.11V-78H349v10.607h1.11" transform="translate(-349 78)"/></clipPath><clipPath id="z"><path class="a" d="M350-125.393h13.637V-136H350Z" transform="translate(-350 136)"/></clipPath><clipPath id="aa"><path class="a" d="M350.11-125.393v-9.35h11.418v9.35h1.11V-136H349v10.607h1.11" transform="translate(-349 136)"/></clipPath><clipPath id="ab"><path class="a" d="M276-125.393h13.637V-136H276Z" transform="translate(-276 136)"/></clipPath><clipPath id="ac"><path class="a" d="M276.11-125.393v-9.35h11.417v9.35h1.11V-136H275v10.607h1.11" transform="translate(-275 136)"/></clipPath><clipPath id="ad"><path class="a" d="M322.091-187A4.772,4.772,0,0,0,318-182.3a4.772,4.772,0,0,0,4.091,4.7,4.772,4.772,0,0,0,4.091-4.7,4.771,4.771,0,0,0-4.091-4.7" transform="translate(-318 187)"/></clipPath><clipPath id="ae"><path class="a" d="M320.234-177.727,327.182-184c-.081-.1-.164-.2-.251-.3a6.036,6.036,0,0,1-.769-.706L319-178.537a4.146,4.146,0,0,0,1.234.81" transform="translate(-319 185)"/></clipPath><clipPath id="af"><path class="a" d="M332.446-173.588a5.419,5.419,0,0,1,.009-1.412L327-169.545h1.973l3.463-3.463a4.407,4.407,0,0,1,.01-.58" transform="translate(-327 175)"/></clipPath><clipPath id="ag"><path class="a" d="M252-199.681l24.824-14.93,24.271,16.1v-2.975L276.783-217,252-202.092v2.411Z" transform="translate(-252 217)"/></clipPath><clipPath id="ah"><path class="a" d="M333.531-187a4.656,4.656,0,0,0-.531.116,4.744,4.744,0,0,1,3.483,4.581A4.744,4.744,0,0,1,333-177.722a4.653,4.653,0,0,0,.531.117,4.743,4.743,0,0,0,4.014-4.7,4.743,4.743,0,0,0-4.014-4.7" transform="translate(-333 187)"/></clipPath><clipPath id="ai"><path class="a" d="M115-67.393h13.637V-78H115Z" transform="translate(-115 78)"/></clipPath><clipPath id="aj"><path class="a" d="M116.11-67.393v-9.35h11.417v9.35h1.11V-78H115v10.607h1.11" transform="translate(-115 78)"/></clipPath><clipPath id="ak"><path class="a" d="M115-125.393h13.637V-136H115Z" transform="translate(-115 136)"/></clipPath><clipPath id="al"><path class="a" d="M116.11-125.393v-9.35h11.417v9.35h1.11V-136H115v10.607h1.11" transform="translate(-115 136)"/></clipPath><clipPath id="am"><path class="a" d="M41-125.393H54.637V-136H41Z" transform="translate(-41 136)"/></clipPath><clipPath id="an"><path class="a" d="M42.11-125.393v-9.35H53.528v9.35h1.11V-136H41v10.607h1.11" transform="translate(-41 136)"/></clipPath><clipPath id="ao"><path class="a" d="M41-65.393H54.637V-76H41Z" transform="translate(-41 76)"/></clipPath><clipPath id="ap"><path class="a" d="M42.11-65.393v-9.35H53.528v9.35h1.11V-76H41v10.607h1.11" transform="translate(-41 76)"/></clipPath><clipPath id="aq"><path class="a" d="M88.091-187A4.772,4.772,0,0,0,84-182.3a4.772,4.772,0,0,0,4.091,4.7,4.772,4.772,0,0,0,4.091-4.7,4.772,4.772,0,0,0-4.091-4.7" transform="translate(-84 187)"/></clipPath><clipPath id="ar"><path class="a" d="M88.051-177.03l5.919-6.009c-.069-.1-.14-.191-.214-.284A5.41,5.41,0,0,1,93.1-184L87-177.806a3.526,3.526,0,0,0,1.051.777" transform="translate(-87 184)"/></clipPath><clipPath id="as"><path class="a" d="M100.144-172.588a5.744,5.744,0,0,1,.008-1.412L95-168.545h1.864l3.27-3.463a4.692,4.692,0,0,1,.01-.58" transform="translate(-95 174)"/></clipPath><clipPath id="at"><path class="a" d="M18-201.332,42.624-215.66l24.471,14.312v-2.145L42.583-218,18-203.536v2.2" transform="translate(-18 218)"/></clipPath><clipPath id="au"><path class="a" d="M99.531-187a4.7,4.7,0,0,0-.531.116,4.744,4.744,0,0,1,3.483,4.581A4.744,4.744,0,0,1,99-177.722a4.7,4.7,0,0,0,.531.117,4.743,4.743,0,0,0,4.014-4.7,4.743,4.743,0,0,0-4.014-4.7" transform="translate(-99 187)"/></clipPath><clipPath id="av"><path class="a" d="M205-54v1.212L206.212-54H205" transform="translate(-205 54)"/></clipPath><clipPath id="aw"><path class="a" d="M206-49.151,210.849-54H209.2L206-50.8v1.646" transform="translate(-206 54)"/></clipPath><clipPath id="ax"><path class="a" d="M205-36.222v1.707l6.667-6.778V-43L205-36.222" transform="translate(-205 43)"/></clipPath><clipPath id="ay"><path class="a" d="M224.212-16.788V-18L223-16.788h1.212" transform="translate(-223 18)"/></clipPath><clipPath id="az"><path class="a" d="M211.715-25.848l3.437-3.437V-31L210-25.848h1.715" transform="translate(-210 31)"/></clipPath><clipPath id="ba"><path class="a" d="M205-46.222v1.707l6.667-6.778V-53L205-46.222" transform="translate(-205 53)"/></clipPath><clipPath id="bb"><path class="a" d="M349-122.091h13.637V-123H349Z" transform="translate(-349 123)"/></clipPath><clipPath id="bc"><path class="a" d="M376-125.09h.909V-136H376Z" transform="translate(-376 136)"/></clipPath><clipPath id="bd"><path class="a" d="M363-125.09h.909V-136H363Z" transform="translate(-363 136)"/></clipPath><clipPath id="be"><path class="a" d="M349-64.091h13.637V-65H349Z" transform="translate(-349 65)"/></clipPath><clipPath id="bf"><path class="a" d="M376-67.09h.909V-78H376Z" transform="translate(-376 78)"/></clipPath><clipPath id="bg"><path class="a" d="M363-67.09h.909V-78H363Z" transform="translate(-363 78)"/></clipPath><clipPath id="bh"><path class="a" d="M275-64.091h13.637V-65H275Z" transform="translate(-275 65)"/></clipPath><clipPath id="bi"><path class="a" d="M302-67.09h.909V-78H302Z" transform="translate(-302 78)"/></clipPath><clipPath id="bj"><path class="a" d="M289-67.09h.909V-78H289Z" transform="translate(-289 78)"/></clipPath><clipPath id="bk"><path class="a" d="M275-122.091h13.637V-123H275Z" transform="translate(-275 123)"/></clipPath><clipPath id="bl"><path class="a" d="M302-125.09h.909V-136H302Z" transform="translate(-302 136)"/></clipPath><clipPath id="bm"><path class="a" d="M289-125.09h.909V-136H289Z" transform="translate(-289 136)"/></clipPath><clipPath id="bn"><path class="a" d="M299.972-155.992v-45.483l-24.054-15.671-24.189,14.43v46.723l-.729.724v-47.857L275.935-218,300.7-201.865v46.6Z" transform="translate(-251 218)"/></clipPath><clipPath id="bo"><path class="a" d="M264.806-222.667l27.885,17.908.665-.89-28.608-18.5-28.683,17.043.7.931Zm28.065,18.881-28.082-18.035-28.215,16.592L235-207.315,264.764-225,294.4-205.832l-1.528,2.046Z" transform="translate(-235 225)"/></clipPath><clipPath id="bp"><path class="a" d="M274.731-67.5h12.781v-9.787H274.731Zm-.731.713h14.244V-78H274Z" transform="translate(-274 78)"/></clipPath><clipPath id="bq"><path class="a" d="M348.731-67.5h12.781v-9.787H348.731Zm-.731.713h14.244V-78H348Z" transform="translate(-348 78)"/></clipPath><clipPath id="br"><path class="a" d="M274.731-126.5h12.781v-9.787H274.731Zm-.731.713h14.244V-137H274Z" transform="translate(-274 137)"/></clipPath><clipPath id="bs"><path class="a" d="M348.731-126.5h12.781v-9.787H348.731Zm-.731.713h14.244V-137H348Z" transform="translate(-348 137)"/></clipPath><clipPath id="bt"><path class="a" d="M246.909-10.363h51.216v-2.727H246.909ZM246-9.757h52.731V-14H246Z" transform="translate(-246 14)"/></clipPath><clipPath id="bu"><path class="a" d="M321-187.278A4.283,4.283,0,0,0,316.722-183,4.283,4.283,0,0,0,321-178.721,4.284,4.284,0,0,0,325.279-183,4.284,4.284,0,0,0,321-187.278ZM321-178a5.006,5.006,0,0,1-5-5,5.006,5.006,0,0,1,5-5,5.006,5.006,0,0,1,5,5,5.006,5.006,0,0,1-5,5Z" transform="translate(-316 188)"/></clipPath><clipPath id="bv"><path class="a" d="M114-122.091h13.637V-123H114Z" transform="translate(-114 123)"/></clipPath><clipPath id="bw"><path class="a" d="M143-125.09h.909V-136H143Z" transform="translate(-143 136)"/></clipPath><clipPath id="bx"><path class="a" d="M127-125.09h.909V-136H127Z" transform="translate(-127 136)"/></clipPath><clipPath id="by"><path class="a" d="M114-64.091h13.637V-65H114Z" transform="translate(-114 65)"/></clipPath><clipPath id="bz"><path class="a" d="M143-67.09h.909V-78H143Z" transform="translate(-143 78)"/></clipPath><clipPath id="ca"><path class="a" d="M127-67.09h.909V-78H127Z" transform="translate(-127 78)"/></clipPath><clipPath id="cb"><path class="a" d="M40-122.091H53.637V-123H40Z" transform="translate(-40 123)"/></clipPath><clipPath id="cc"><path class="a" d="M68-125.09h.606V-136H68Z" transform="translate(-68 136)"/></clipPath><clipPath id="cd"><path class="a" d="M53-125.09h.909V-136H53Z" transform="translate(-53 136)"/></clipPath><clipPath id="ce"><path class="a" d="M183.735-10.506h18.228v-2.745H183.735ZM183-9.757h19.7V-14H183Z" transform="translate(-183 14)"/></clipPath><clipPath id="cf"><path class="a" d="M179.909-73.937h20.608V-99.091H179.909Zm-.909.606h22.123V-100H179Z" transform="translate(-179 100)"/></clipPath><clipPath id="cg"><path class="a" d="M179.909-105.969h20.608v-2.121H179.909Zm-.909.606h22.123V-109H179Z" transform="translate(-179 109)"/></clipPath><clipPath id="ch"><path class="a" d="M196.711-48.962h11V-63.28h-11Zm-.711.72h12.425V-64H196Z" transform="translate(-196 64)"/></clipPath><clipPath id="ci"><path class="a" d="M204.909-42.575h5.758V-54.091h-5.758Zm-.909.606h7.273V-55H204Z" transform="translate(-204 55)"/></clipPath><clipPath id="cj"><path class="a" d="M64.972-155.992v-46.744L40.926-217.155l-24.2,14.436v46.727l-.729.724v-47.861L40.927-218,65.7-203.144v47.876Z" transform="translate(-16 218)"/></clipPath><clipPath id="ck"><path class="a" d="M1.064-209.9l.7.942,28.027-16.679,27.882,16.677.664-.9-28.588-17.29ZM57.87-208,29.792-224.793,1.573-208,0-210.11,29.752-228,59.4-210.07,57.87-208Z" transform="translate(0 228)"/></clipPath><clipPath id="cl"><path class="a" d="M113.731-67.5h12.781v-9.787H113.731Zm-.731.713h14.244V-78H113Z" transform="translate(-113 78)"/></clipPath><clipPath id="cm"><path class="a" d="M39.731-126.5H52.512v-9.787H39.731Zm-.731.713H53.244V-137H39Z" transform="translate(-39 137)"/></clipPath><clipPath id="cn"><path class="a" d="M40-63.091H53.637V-64H40Z" transform="translate(-40 64)"/></clipPath><clipPath id="co"><path class="a" d="M68-66.09h.606V-77H68Z" transform="translate(-68 77)"/></clipPath><clipPath id="cp"><path class="a" d="M53-66.09h.909V-77H53Z" transform="translate(-53 77)"/></clipPath><clipPath id="cq"><path class="a" d="M39.731-67.5H52.512v-9.787H39.731ZM39-66.787H53.244V-78H39Z" transform="translate(-39 78)"/></clipPath><clipPath id="cr"><path class="a" d="M113.731-126.5h12.781v-9.787H113.731Zm-.731.713h14.244V-137H113Z" transform="translate(-113 137)"/></clipPath><clipPath id="cs"><path class="a" d="M8.909-10.363H61.338v-2.727H8.909ZM8-9.757H61.944V-14H8Z" transform="translate(-8 14)"/></clipPath><clipPath id="ct"><path class="a" d="M87-187.278A4.284,4.284,0,0,0,82.722-183,4.283,4.283,0,0,0,87-178.721,4.283,4.283,0,0,0,91.279-183,4.283,4.283,0,0,0,87-187.278ZM87-178a5.006,5.006,0,0,1-5-5,5.006,5.006,0,0,1,5-5,5.006,5.006,0,0,1,5,5,5.006,5.006,0,0,1-5,5Z" transform="translate(-82 188)"/></clipPath><clipPath id="cu"><path class="a" d="M1037-159.332h1.212V-176H1037Z" transform="translate(-1037 176)"/></clipPath><clipPath id="cv"><path class="a" d="M1027.038-29.181l9.781-9.782V-41L1025-29.181h2.038" transform="translate(-1025 41)"/></clipPath><clipPath id="cw"><path class="a" d="M1013.063-38.635l14.3-14.3V-55L1011-38.635h2.063" transform="translate(-1011 55)"/></clipPath><clipPath id="cx"><path class="a" d="M999.048-49.392l18.559-18.559V-70L997-49.392h2.048" transform="translate(-997 70)"/></clipPath><clipPath id="cy"><path class="a" d="M974-135v.909l.909-.909H974" transform="translate(-974 135)"/></clipPath><clipPath id="cz"><path class="a" d="M1041.982-17.727l5.291-5.292V-25L1040-17.727h1.982" transform="translate(-1040 25)"/></clipPath><clipPath id="da"><path class="a" d="M1055.167-9.666l1.167-1.168V-13L1053-9.666h2.167" transform="translate(-1053 13)"/></clipPath><clipPath id="db"><path class="a" d="M1228.606-1.7H1228l.356-.3.25.3" transform="translate(-1228 2)"/></clipPath><clipPath id="dc"><path class="a" d="M990-162.27l31.821-31.53-.85-1.2L990.05-164.362,990-162.27" transform="translate(-990 195)"/></clipPath><clipPath id="dd"><path class="a" d="M989-111.875l41.215-40.924-.849-1.2-40.315,40.029-.052,2.1" transform="translate(-989 154)"/></clipPath><clipPath id="de"><path class="a" d="M990-123.391l39.4-39.4-.851-1.211-38.5,38.5-.05,2.112" transform="translate(-990 164)"/></clipPath><clipPath id="df"><path class="a" d="M989.111-102.754l.047-.048,42.572-42.988-.841-1.21-41.842,42.251L989-102.8v.048h.111" transform="translate(-989 147)"/></clipPath><clipPath id="dg"><path class="a" d="M990-131.906l37.276-37.873-.843-1.221-36.383,36.969L990-131.906" transform="translate(-990 171)"/></clipPath><clipPath id="dh"><path class="a" d="M991-174.088l30-29.708-.852-1.2-29.1,28.814-.05,2.1" transform="translate(-991 205)"/></clipPath><clipPath id="di"><path class="a" d="M991-143.33l35.457-35.467-.847-1.2-34.559,34.568-.052,2.1" transform="translate(-991 180)"/></clipPath><clipPath id="dj"><path class="a" d="M991-153.846l33.942-33.936-.855-1.218-33.035,33.029L991-153.846" transform="translate(-991 189)"/></clipPath><clipPath id="dk"><path class="a" d="M1087.031-60.937l.047-.048L1111.669-85.8l-.837-1.2L1085-60.937h2.031" transform="translate(-1085 87)"/></clipPath><clipPath id="dl"><path class="a" d="M1128.068-43.514l.048-.048L1145.4-60.788,1144.543-62l-18.495,18.438-.048.048h2.068" transform="translate(-1126 62)"/></clipPath><clipPath id="dm"><path class="a" d="M1144.014-37.241l.047-.048,14.3-14.511-.83-1.2L1142-37.241h2.014" transform="translate(-1142 53)"/></clipPath><clipPath id="dn"><path class="a" d="M1099.066-55.362l22.481-22.427L1120.7-79l-23.648,23.59-.048.048h2.066" transform="translate(-1097 79)"/></clipPath><clipPath id="do"><path class="a" d="M1200-13.545h1.958l4.1-4.26L1205.254-19,1200-13.545" transform="translate(-1200 19)"/></clipPath><clipPath id="dp"><path class="a" d="M1158.072-31.666l12.172-12.122L1169.389-45l-13.341,13.286-.048.048h2.072" transform="translate(-1156 45)"/></clipPath><clipPath id="dq"><path class="a" d="M1187.08-19.818l7.012-6.968L1193.234-28,1185-19.818h2.08" transform="translate(-1185 28)"/></clipPath><clipPath id="dr"><path class="a" d="M1172.994-25.393l.047-.047,9.172-9.365L1181.389-36l-10.342,10.559-.046.047h1.994" transform="translate(-1171 36)"/></clipPath><clipPath id="ds"><path class="a" d="M1115.024-49.089l.047-.048L1134.517-68.8l-.835-1.2-20.635,20.863-.047.048h2.024" transform="translate(-1113 70)"/></clipPath><clipPath id="dt"><path class="a" d="M1071.064-67.21,1098.7-94.789,1097.848-96,1069-67.21h2.064" transform="translate(-1069 96)"/></clipPath><clipPath id="du"><path class="a" d="M1013.061-90.906l.048-.048L1051-128.79l-.85-1.21-39.1,39.046-.048.048h2.061" transform="translate(-1011 130)"/></clipPath><clipPath id="dv"><path class="a" d="M1000.04-96.482l.047-.048,40.037-40.265-.841-1.206L998.047-96.529l-.047.048h2.04" transform="translate(-998 138)"/></clipPath><clipPath id="dw"><path class="a" d="M1028.038-84.634l.047-.048,34.887-35.115-.842-1.2-36.083,36.319-.047.048h2.038" transform="translate(-1026 121)"/></clipPath><clipPath id="dx"><path class="a" d="M1057.035-72.785l.047-.048,29.739-29.962-.839-1.2L1055-72.785h2.035" transform="translate(-1055 104)"/></clipPath><clipPath id="dy"><path class="a" d="M1043.063-79.058l.048-.048,32.74-32.683L1075-113l-34,33.942h2.063" transform="translate(-1041 113)"/></clipPath><clipPath id="dz"><path class="a" d="M1014.072-70,1042-97.928V-100l-30,30h2.072" transform="translate(-1012 100)"/></clipPath><clipPath id="ea"><path class="a" d="M1101.14-9.363l1.5-1.5V-13L1099-9.363h2.14" transform="translate(-1099 13)"/></clipPath><clipPath id="eb"><path class="a" d="M1000.061-79.755l32.184-32.184V-114L998-79.755h2.061" transform="translate(-998 114)"/></clipPath><clipPath id="ec"><path class="a" d="M1058.023-38.635l14.342-14.342V-55L1056-38.635h2.023" transform="translate(-1056 55)"/></clipPath><clipPath id="ed"><path class="a" d="M1087.137-19.818l6.045-6.046V-28L1085-19.818h2.137" transform="translate(-1085 28)"/></clipPath><clipPath id="ee"><path class="a" d="M1072.032-28.878l10.09-10.088V-41L1070-28.878h2.032" transform="translate(-1070 41)"/></clipPath><clipPath id="ef"><path class="a" d="M1028.061-59.543l23.4-23.4V-85L1026-59.543h2.061" transform="translate(-1026 85)"/></clipPath><clipPath id="eg"><path class="a" d="M1043.046-49.089l18.865-18.865V-70L1041-49.089h2.046" transform="translate(-1041 70)"/></clipPath><clipPath id="eh"><path class="a" d="M989-15.636h83.34V-22H989Z" transform="translate(-989 22)"/></clipPath><clipPath id="ei"><path class="a" d="M1023.851-207l-.015,56.368-34.826-.08L989-183.361,1023.851-207" transform="translate(-989 207)"/></clipPath><clipPath id="ej"><path class="a" d="M1016.152-184.59,1011-180.908V-190h5.152v5.41" transform="translate(-1011 190)"/></clipPath><clipPath id="ek"><path class="a" d="M1103.04-306l-.04,86.37h49.082l.012-58.156L1103.04-306" transform="translate(-1103 306)"/></clipPath><clipPath id="el"><path class="a" d="M1014.094-224,975-197.729v4.944l39.094-26.466V-224" transform="translate(-975 224)"/></clipPath><clipPath id="em"><path class="a" d="M1102-323v5.167l50.913,29.381v-4.424L1102-323" transform="translate(-1102 323)"/></clipPath><clipPath id="en"><path class="a" d="M1007-196.182h6.97V-198H1007Z" transform="translate(-1007 198)"/></clipPath><clipPath id="eo"><path class="a" d="M1103-133.242h52.428V-139H1103Z" transform="translate(-1103 139)"/></clipPath><clipPath id="ep"><path class="a" d="M1024-122h14.85v-10H1024Z" transform="translate(-1024 132)"/></clipPath><clipPath id="eq"><path class="a" d="M1123-87.363h35.457V-101H1123Z" transform="translate(-1123 101)"/></clipPath><clipPath id="er"><path class="a" d="M1122-221.634h11.213v-30.416L1122-258v36.366" transform="translate(-1122 258)"/></clipPath><clipPath id="es"><path class="a" d="M1170-188.877h21.82V-211H1170Z" transform="translate(-1170 211)"/></clipPath><clipPath id="et"><path class="a" d="M1103-118.091h48.792V-119H1103Z" transform="translate(-1103 119)"/></clipPath><clipPath id="eu"><path class="a" d="M1103-306v2.315l48.792,27.991v-1.978L1103-306" transform="translate(-1103 306)"/></clipPath><clipPath id="ev"><path class="a" d="M1023.851-207,989.01-183.36l-.01,1.816,34.851-23.1V-207" transform="translate(-989 207)"/></clipPath><clipPath id="ew"><path class="a" d="M1097-205.047v54.415h1.818V-207L1097-205.047" transform="translate(-1097 207)"/></clipPath><clipPath id="ex"><path class="a" d="M1015.637-21,1012-15.242h3.637V-21" transform="translate(-1012 21)"/></clipPath><clipPath id="ey"><path class="a" d="M1119-48.091h37.882V-49H1119Z" transform="translate(-1119 49)"/></clipPath><clipPath id="ez"><path class="a" d="M1178.916-184,1197-202.085V-204l-20,20h1.916" transform="translate(-1177 204)"/></clipPath><clipPath id="fa"><path class="a" d="M1192.894-174.241l13.865-13.864V-190L1191-174.241h1.894" transform="translate(-1191 190)"/></clipPath><clipPath id="fb"><path class="a" d="M1169-193.817,1187.486-212h-1.917L1169-195.7v1.886" transform="translate(-1169 212)"/></clipPath><clipPath id="fc"><path class="a" d="M1170-189.18h1.515V-211H1170Z" transform="translate(-1170 211)"/></clipPath><clipPath id="fd"><path class="a" d="M1170-209.485h22.123V-211H1170Z" transform="translate(-1170 211)"/></clipPath><clipPath id="fe"><path class="a" d="M1123-99.091h35.457V-100H1123Z" transform="translate(-1123 100)"/></clipPath><clipPath id="ff"><path class="a" d="M1125-87.666h.909V-101H1125Z" transform="translate(-1125 101)"/></clipPath><clipPath id="fg"><path class="a" d="M1123.515-221.24H1122V-257l1.515.978v34.783" transform="translate(-1122 257)"/></clipPath><clipPath id="fh"><path class="a" d="M1133.353-248.727,1122-254.677l.7-1.323,10.818,5.694-.163,1.579" transform="translate(-1122 256)"/></clipPath><clipPath id="fi"><path class="a" d="M1025-125.333l6.667-6.667h-1.875L1025-127.209v1.876" transform="translate(-1025 132)"/></clipPath><clipPath id="fj"><path class="a" d="M1026-128.969l3.031-3.031H1026.9l-.9.9v2.129" transform="translate(-1026 132)"/></clipPath><clipPath id="fk"><path class="a" d="M1026.115-122.3l9.8-9.7h-1.919L1025-123.1v.8h1.115" transform="translate(-1025 132)"/></clipPath><clipPath id="fl"><path class="a" d="M1038.92-122.3l9.293-9.193v-.5H1046.8l-9.8,9.7h1.92" transform="translate(-1037 132)"/></clipPath><clipPath id="fm"><path class="a" d="M1065.113-107.666l1.221-1.22V-111L1063-107.666h2.113" transform="translate(-1063 111)"/></clipPath><clipPath id="fn"><path class="a" d="M1052.881-115.03l5.089-5.09V-122l-6.97,6.97h1.881" transform="translate(-1051 122)"/></clipPath><clipPath id="fo"><path class="a" d="M989-5.182h10.607V-7H989Z" transform="translate(-989 7)"/></clipPath><clipPath id="fp"><path class="a" d="M1071-5.182h57.883V-7H1071Z" transform="translate(-1071 7)"/></clipPath><clipPath id="fr"><path class="a" d="M1010-188.058h5.758v-.859H1010Z" transform="translate(-1010 188.917)"/></clipPath><clipPath id="fs"><path class="a" d="M1024-129.091h14.85V-130H1024Z" transform="translate(-1024 130)"/></clipPath><clipPath id="ft"><path class="a" d="M1025-121.7h1.212V-132H1025Z" transform="translate(-1025 132)"/></clipPath><clipPath id="fu"><path class="a" d="M1034-70.788h8.485V-72H1034Z" transform="translate(-1034 72)"/></clipPath><clipPath id="fv"><path class="a" d="M1058-56.544h.909V-72H1058Z" transform="translate(-1058 72)"/></clipPath><clipPath id="fw"><path class="a" d="M1035-56.544h1.212V-72H1035Z" transform="translate(-1035 72)"/></clipPath><clipPath id="fx"><path class="a" d="M1034-56.544h8.485V-72H1034Z" transform="translate(-1034 72)"/></clipPath><clipPath id="fy"><path class="a" d="M1035-65.03l6.97-6.97h-1.86L1035-66.889v1.859" transform="translate(-1035 72)"/></clipPath><clipPath id="fz"><path class="a" d="M1034.069-45.7l8.417-8.369V-56L1034-47.563V-45.7h.069" transform="translate(-1034 56)"/></clipPath><clipPath id="ga"><path class="a" d="M1056.71-28.182l.108-.108V-30L1055-28.182h1.71" transform="translate(-1055 30)"/></clipPath><clipPath id="gb"><path class="a" d="M1042.9-35.939l4.162-4.163V-42L1041-35.939h1.9" transform="translate(-1041 42)"/></clipPath><clipPath id="gc"><path class="a" d="M1034-61.619V-59.7l8.485-8.381V-70L1034-61.619" transform="translate(-1034 70)"/></clipPath><clipPath id="gd"><path class="a" d="M1009.731-190.276v7.9l4.6-3.128v-4.774ZM1009-181v-10h6.061v5.879L1009-181Z" transform="translate(-1009 191)"/></clipPath><clipPath id="gf"><path class="a" d="M1151.385-220.023H1102l.039-86.977.546.315,48.812,28.194,0,22.773h-.727l0-22.355-47.9-27.669-.037,84.994h47.929l.006-29.574h.727l-.006,30.3" transform="translate(-1102 307)"/></clipPath><clipPath id="gg"><path class="a" d="M1151.385-220.023H1102l.039-86.977.546.315,48.812,28.194,0,22.773h-.727l0-22.355-47.9-27.669-.037,84.994h47.929l.006-29.35h.727l-.006,30.075" transform="translate(-1102 307)"/></clipPath><clipPath id="gh"><path class="a" d="M987.737-152.227l33.981.079.012-55.474-34,23.209Zm34.705.807L987.01-151.5,987-184.8l35.457-24.2-.015,57.58Z" transform="translate(-987 209)"/></clipPath><clipPath id="gj"><path class="a" d="M973.729-197.985v4.046l38.242-25.846v-3.854ZM973-192.573v-5.794l.16-.107L1012.7-225v5.6l-.16.108L973-192.573Z" transform="translate(-973 225)"/></clipPath><clipPath id="gk"><path class="a" d="M1103.724-319.413l49.767,28.914v-3.581l-49.767-29.644Zm50.492,30.173L1103-318.995V-325l51.216,30.507v5.253Z" transform="translate(-1103 325)"/></clipPath><clipPath id="gl"><path class="a" d="M1101.724-320.413l49.767,28.914v-3.581l-49.767-29.644Zm50.492,30.173L1101-319.995V-326l51.216,30.507v5.253Z" transform="translate(-1101 326)"/></clipPath><clipPath id="gm"><path class="a" d="M1023.909-123h13.94v-9.092h-13.94Zm-.909.606h15.456V-133H1023Z" transform="translate(-1023 133)"/></clipPath><clipPath id="gn"><path class="a" d="M1007.606-196.879h6.061v-1.212h-6.061Zm-.606.606h7.273V-199H1007Z" transform="translate(-1007 199)"/></clipPath><clipPath id="go"><path class="a" d="M1047-122h.909v-10H1047Z" transform="translate(-1047 132)"/></clipPath><clipPath id="gp"><path class="a" d="M1103.721-133.633h51.29v-4.674h-51.29Zm-.721.694h52.731V-139H1103Z" transform="translate(-1103 139)"/></clipPath><clipPath id="gq"><path class="a" d="M988.723-16.049h82.2v-5.236h-82.2Zm-.723.716h83.643V-22H988Z" transform="translate(-988 22)"/></clipPath><clipPath id="gr"><path class="a" d="M1023.742-16.049h13.366v-5.234h-13.366Zm-.742.717h14.85V-22H1023Z" transform="translate(-1023 22)"/></clipPath><clipPath id="gs"><path class="a" d="M1025-13.091h13.94V-14H1025Z" transform="translate(-1025 14)"/></clipPath><clipPath id="gt"><path class="a" d="M1024.734-84.465h13.078V-86.2h-13.078Zm-.734.8h14.547V-87H1024Z" transform="translate(-1024 87)"/></clipPath><clipPath id="gu"><path class="a" d="M1033.747-57.662h7.9V-72.276h-7.9Zm-.747.724h9.395V-73H1033Z" transform="translate(-1033 73)"/></clipPath><clipPath id="gv"><path class="a" d="M1158.043-88.06v-13.2h-34.326l-.008,13.2-.709.3V-102h35.76v14.244Z" transform="translate(-1123 102)"/></clipPath><clipPath id="gw"><path class="a" d="M1117.909-55.182h37.579v-1.212h-37.579Zm-.909.606h39.094V-57H1117Z" transform="translate(-1117 57)"/></clipPath><clipPath id="gx"><path class="a" d="M1157-86.666h.909V-100H1157Z" transform="translate(-1157 100)"/></clipPath><clipPath id="gy"><path class="a" d="M1206-86.666h.909V-100H1206Z" transform="translate(-1206 100)"/></clipPath><clipPath id="gz"><path class="a" d="M1123-78.091h35.457V-79H1123Z" transform="translate(-1123 79)"/></clipPath><clipPath id="ha"><path class="a" d="M1122.715-222.75H1133.1l-.059-29.212-10.328-5.809Zm11.1.723H1122V-259l11.756,6.613.063,30.36Z" transform="translate(-1122 259)"/></clipPath><clipPath id="hb"><path class="a" d="M1168.909-189.877h21.214v-21.214h-21.214Zm-.909.606h22.729V-212H1168Z" transform="translate(-1168 212)"/></clipPath><clipPath id="hc"><path class="a" d="M1205-188.877h.909V-211H1205Z" transform="translate(-1205 211)"/></clipPath><clipPath id="hd"><path class="a" d="M582.188-87.818l5.994-5.994V-96L580-87.818h2.188" transform="translate(-580 96)"/></clipPath><clipPath id="he"><path class="a" d="M569.014-97.181l9.8-9.805V-109L567-97.181h2.014" transform="translate(-567 109)"/></clipPath><clipPath id="hf"><path class="a" d="M554.765-106.635l14.3-14.319V-123L553-106.913v.278h1.765" transform="translate(-553 123)"/></clipPath><clipPath id="hg"><path class="a" d="M597.262-78.363l1.375-1.375V-82L595-78.363h2.262" transform="translate(-595 82)"/></clipPath><clipPath id="hh"><path class="a" d="M672-5.182h32.124V-7H672Z" transform="translate(-672 7)"/></clipPath><clipPath id="hi"><path class="a" d="M779-5.182h32.124V-7H779Z" transform="translate(-779 7)"/></clipPath><clipPath id="hj"><path class="a" d="M766-16.06h34.548V-20H766Z" transform="translate(-766 20)"/></clipPath><clipPath id="hk"><path class="a" d="M575-123.087h57.883V-174H575Z" transform="translate(-575 174)"/></clipPath><clipPath id="hl"><path class="a" d="M604.9-181H564l.391.293.821.616h61.216L625.215-181H604.9" transform="translate(-564 181)"/></clipPath><clipPath id="hm"><path class="a" d="M641.611-251H620.846s-41.016,0-41.016,0L561-230.828l2.349,1.648h61.743l16.481-19.375,15.619,19.375h2.3L641.611-251" transform="translate(-561 251)"/></clipPath><clipPath id="hn"><path class="a" d="M800.241-204.622l0-17.773L784.507-242,767.9-222.4H766v47.673h34.237l0-23.044v-6.856" transform="translate(-766 242)"/></clipPath><clipPath id="ho"><path class="a" d="M826.887-242,826-240.969,842.981-222h1.5l-17.6-20" transform="translate(-826 242)"/></clipPath><clipPath id="hp"><path class="a" d="M651.467-240l-16.628,19.381L575-220.612v1.22l60.971-.01,15.56-18.181,13.648,16.96h1.949L651.467-240" transform="translate(-575 240)"/></clipPath><clipPath id="hq"><path class="a" d="M768-110.939h38.791V-117H768Z" transform="translate(-768 117)"/></clipPath><clipPath id="hr"><path class="a" d="M610-58.847h18.789V-84H610Z" transform="translate(-610 84)"/></clipPath><clipPath id="hs"><path class="a" d="M532-58.847h23.941V-84H532Z" transform="translate(-532 84)"/></clipPath><clipPath id="ht"><path class="a" d="M599-138.484h16.668V-150H599Z" transform="translate(-599 150)"/></clipPath><clipPath id="hu"><path class="a" d="M686-138.484h16.668V-150H686Z" transform="translate(-686 150)"/></clipPath><clipPath id="hv"><path class="a" d="M690-63.15h15.456V-88H690Z" transform="translate(-690 88)"/></clipPath><clipPath id="hw"><path class="a" d="M622-61.454h11.516V-66H622Z" transform="translate(-622 66)"/></clipPath><clipPath id="hx"><path class="a" d="M543-33.756h16.365V-48H543Z" transform="translate(-543 48)"/></clipPath><clipPath id="hy"><path class="a" d="M810-59.029h12.122V-76H810Z" transform="translate(-810 76)"/></clipPath><clipPath id="hz"><path class="a" d="M810-154.241h11.213V-170H810Z" transform="translate(-810 170)"/></clipPath><clipPath id="ia"><path class="a" d="M809-54.847h10.3V-70H809Z" transform="translate(-809 70)"/></clipPath><clipPath id="ib"><path class="a" d="M543-33.756h8.182V-48H543Z" transform="translate(-543 48)"/></clipPath><clipPath id="ic"><path class="a" d="M597-4.485h4.243V-6H597Z" transform="translate(-597 6)"/></clipPath><clipPath id="id"><path class="a" d="M532-4.485h3.637V-6H532Z" transform="translate(-532 6)"/></clipPath><clipPath id="ie"><path class="a" d="M809-63.091h8.182V-64H809Z" transform="translate(-809 64)"/></clipPath><clipPath id="if"><path class="a" d="M833-50.666h.909V-64H833Z" transform="translate(-833 64)"/></clipPath><clipPath id="ig"><path class="a" d="M686-148.091h16.971V-149H686Z" transform="translate(-686 149)"/></clipPath><clipPath id="ih"><path class="a" d="M686-138.484h1.212V-150H686Z" transform="translate(-686 150)"/></clipPath><clipPath id="ii"><path class="a" d="M598-148.091h16.971V-149H598Z" transform="translate(-598 149)"/></clipPath><clipPath id="ij"><path class="a" d="M598-138.484h1.212V-150H598Z" transform="translate(-598 150)"/></clipPath><clipPath id="ik"><path class="a" d="M691-63.15h1.212V-88H691Z" transform="translate(-691 88)"/></clipPath><clipPath id="il"><path class="a" d="M690-86.788h15.456V-88H690Z" transform="translate(-690 88)"/></clipPath><clipPath id="im"><path class="a" d="M622-66.091h11.516V-67H622Z" transform="translate(-622 67)"/></clipPath><clipPath id="in"><path class="a" d="M621-61.454h.909V-66H621Z" transform="translate(-621 66)"/></clipPath><clipPath id="io"><path class="a" d="M767-111.636h5.455V-118H767Z" transform="translate(-767 118)"/></clipPath><clipPath id="ip"><path class="a" d="M756-124.087h3.031V-175H756Z" transform="translate(-756 175)"/></clipPath><clipPath id="iq"><path class="a" d="M533-83.091h42.125V-84H533Z" transform="translate(-533 84)"/></clipPath><clipPath id="ir"><path class="a" d="M612-83.091h18.486V-84H612Z" transform="translate(-612 84)"/></clipPath><clipPath id="is"><path class="a" d="M571-40.939,577.061-47H575.1L571-42.9v1.963" transform="translate(-571 47)"/></clipPath><clipPath id="it"><path class="a" d="M570-48v1.818L571.818-48H570" transform="translate(-570 48)"/></clipPath><clipPath id="iu"><path class="a" d="M571-38.02V-36l8.182-7.979V-46L571-38.02" transform="translate(-571 46)"/></clipPath><clipPath id="iv"><path class="a" d="M571.877-22.605l7.305-7.318V-32L571-23.8v1.2h.877" transform="translate(-571 32)"/></clipPath><clipPath id="iw"><path class="a" d="M584.026-12.151l2.823-2.823V-17L582-12.151h2.026" transform="translate(-582 17)"/></clipPath><clipPath id="ix"><path class="a" d="M811-153.337v1.975l11.213-11.663V-165L811-153.337" transform="translate(-811 165)"/></clipPath><clipPath id="iy"><path class="a" d="M816.94-141l8.06-8.06V-151l-10,10h1.94" transform="translate(-815 151)"/></clipPath><clipPath id="iz"><path class="a" d="M814.752-170,810-165.248v1.915L816.667-170h-1.915" transform="translate(-810 170)"/></clipPath><clipPath id="ja"><path class="a" d="M810-169.091h11.213V-170H810Z" transform="translate(-810 170)"/></clipPath><clipPath id="jb"><path class="a" d="M844-154.938h1.212V-171H844Z" transform="translate(-844 171)"/></clipPath><clipPath id="jc"><path class="a" d="M800-16.363h1.818V-20H800Z" transform="translate(-800 20)"/></clipPath><clipPath id="jd"><path class="a" d="M799-12.485h3.94V-14H799Z" transform="translate(-799 14)"/></clipPath><clipPath id="je"><path class="a" d="M742-16.06h7.273V-20H742Z" transform="translate(-742 20)"/></clipPath><clipPath id="jf"><path class="a" d="M671-16.06h5.758V-20H671Z" transform="translate(-671 20)"/></clipPath><clipPath id="jg"><path class="a" d="M597-16.06h4.243V-20H597Z" transform="translate(-597 20)"/></clipPath><clipPath id="jh"><path class="a" d="M532-16.06h3.637V-20H532Z" transform="translate(-532 20)"/></clipPath><clipPath id="ji"><path class="a" d="M529-86.788h25.457V-88H529Z" transform="translate(-529 88)"/></clipPath><clipPath id="jj"><path class="a" d="M546-61.969h3.637V-65H546Z" transform="translate(-546 65)"/></clipPath><clipPath id="jk"><path class="a" d="M660-38.969h3.637V-42H660Z" transform="translate(-660 42)"/></clipPath><clipPath id="jl"><path class="a" d="M561-67.969h5.152V-71H561Z" transform="translate(-561 71)"/></clipPath><clipPath id="jm"><path class="a" d="M543-47.091h16.365V-48H543Z" transform="translate(-543 48)"/></clipPath><clipPath id="jn"><path class="a" d="M544-33.756h.909V-48H544Z" transform="translate(-544 48)"/></clipPath><clipPath id="jo"><path class="a" d="M623.61-230.7H560L578.9-251l62.014,0L623.61-230.7" transform="translate(-560 251)"/></clipPath><clipPath id="jp"><path class="a" d="M716.269-269H712v1.853h.295V-249h3.9v-.123l6.511-8.1v-9.926h.2V-269h-6.641" transform="translate(-712 269)"/></clipPath><clipPath id="jq"><path class="a" d="M712-244.817h3.94V-263H712Z" transform="translate(-712 263)"/></clipPath><clipPath id="jr"><path class="a" d="M713-260.091h10.3V-261H713Z" transform="translate(-713 261)"/></clipPath><clipPath id="js"><path class="a" d="M632.4-130.117h-.731v-47.159H573.731V-150.8H573V-178h59.4v47.883" transform="translate(-573 178)"/></clipPath><clipPath id="jt"><path class="a" d="M799.843-175.116H765v-48.166h2.089L783.812-243l16.039,19.953,0,17.813h-.727l0-17.56L783.8-241.861l-16.37,19.3h-1.7v46.721h33.389l0-22.572h.727l0,23.294" transform="translate(-765 243)"/></clipPath><clipPath id="ju"><path class="a" d="M659.008-229.665h-3.026l-15.518-19.847L624.09-229.665H561.8l-2.8-2.022L578.689-253h26.967v.743H579L560.1-231.8l1.923,1.391h61.725l16.727-20.275,15.854,20.275h1.161l-17.159-21.849H615.993V-253h24.69l18.324,23.335" transform="translate(-559 253)"/></clipPath><clipPath id="jv"><path class="a" d="M671.695-17.173h4.672v-3.109h-4.672Zm-.695.719h6.061V-21H671Z" transform="translate(-671 21)"/></clipPath><clipPath id="jw"><path class="a" d="M765.733-17.173h33.992v-3.109H765.733Zm-.733.719h35.457V-21H765Z" transform="translate(-765 21)"/></clipPath><clipPath id="jx"><path class="a" d="M806.909-19.182h14.547v-1.212H806.909Zm-.909.606h16.062V-21H806Z" transform="translate(-806 21)"/></clipPath><clipPath id="jy"><path class="a" d="M811.909-12.879h14.85v-1.212h-14.85Zm-.909.606h16.365V-15H811Z" transform="translate(-811 15)"/></clipPath><clipPath id="jz"><path class="a" d="M799.738-17.173H802.8l0-.993h-1.669v-2.105l-1.392-.007Zm3.807.719H799V-21l2.869.014v2.1h1.664l.013,2.43Z" transform="translate(-799 21)"/></clipPath><clipPath id="ka"><path class="a" d="M809.741-160.256H821.9v-17H809.741Zm-.741.742h13.637V-178H809Z" transform="translate(-809 178)"/></clipPath><clipPath id="kb"><path class="a" d="M810.718-155.35H821.1v-14.934H810.718Zm-.718.715h11.819V-171H810Z" transform="translate(-810 171)"/></clipPath><clipPath id="kc"><path class="a" d="M809.746-61.262h11.842v-16.99H809.746Zm-.746.748h13.334V-79H809Z" transform="translate(-809 79)"/></clipPath><clipPath id="kd"><path class="a" d="M810.733-55.666h9.747V-70.272h-9.747Zm-.733.728h11.213V-71H810Z" transform="translate(-810 71)"/></clipPath><clipPath id="ke"><path class="a" d="M809.75-51.793h7.289V-64.266H809.75Zm-.75.734h8.789V-65H809Z" transform="translate(-809 65)"/></clipPath><clipPath id="kf"><path class="a" d="M765.728-112.723h38.244v-5.583H765.728Zm-.728.694h39.7V-119H765Z" transform="translate(-765 119)"/></clipPath><clipPath id="kg"><path class="a" d="M766.909-111.939h4.546v-5.455h-4.546Zm-.909.606h6.061V-118H766Z" transform="translate(-766 118)"/></clipPath><clipPath id="kh"><path class="a" d="M597.909-139.181h16.365v-10.91H597.909Zm-.909.606h17.88V-151H597Z" transform="translate(-597 151)"/></clipPath><clipPath id="ki"><path class="a" d="M684.909-139.181h16.365v-10.91H684.909Zm-.909.606h17.88V-151H684Z" transform="translate(-684 151)"/></clipPath><clipPath id="kj"><path class="a" d="M689.721-64.567h14.619V-88.279H689.721Zm-.721.721h16.062V-89H689Z" transform="translate(-689 89)"/></clipPath><clipPath id="kk"><path class="a" d="M671.909-6.182h30.911V-7.394H671.909ZM671-5.576h32.427V-8H671Z" transform="translate(-671 8)"/></clipPath><clipPath id="kl"><path class="a" d="M778.909-6.182h33.639V-7.394H778.909ZM778-5.576h35.154V-8H778Z" transform="translate(-778 8)"/></clipPath><clipPath id="km"><path class="a" d="M609.729-65.725h17.938V-84.273H609.729ZM609-65h19.4V-85H609Z" transform="translate(-609 85)"/></clipPath><clipPath id="kn"><path class="a" d="M530.729-59.963h23.089V-84.278H530.729ZM530-59.24h24.547V-85H530Z" transform="translate(-530 85)"/></clipPath><clipPath id="ko"><path class="a" d="M609.728-17.173h17.939v-3.109H609.728Zm-.728.719h19.4V-21H609Z" transform="translate(-609 21)"/></clipPath><clipPath id="kp"><path class="a" d="M609.728-7.767h17.939V-9.2H609.728Zm-.728.8h19.4V-10H609Z" transform="translate(-609 10)"/></clipPath><clipPath id="kq"><path class="a" d="M530-16.454V-21h4.286v.719h-3.335v3.109h3.335v.719Z" transform="translate(-530 21)"/></clipPath><clipPath id="kr"><path class="a" d="M601.546-16.454H597v-.719h3.766v-3.109H597V-21h4.546v4.546" transform="translate(-597 21)"/></clipPath><clipPath id="ks"><path class="a" d="M530-6.969V-10h4.243l.044.8h-3.558v1.436h23.09V-9.6h.729v2.632Z" transform="translate(-530 10)"/></clipPath><clipPath id="kt"><path class="a" d="M613.735-88.578h17.016V-89.3H613.735Zm-.735.7h18.486V-90H613Z" transform="translate(-613 90)"/></clipPath><clipPath id="ku"><path class="a" d="M528.727-88.578h24.911V-89.3H528.727Zm-.727.7h26.366V-90H528Z" transform="translate(-528 90)"/></clipPath><clipPath id="kv"><path class="a" d="M711.752-245.943h3.041v-17.324h-3.041Zm-.752.733h4.546V-264H711Z" transform="translate(-711 264)"/></clipPath><clipPath id="kw"><path class="a" d="M724.715-263.232v16.763l5.844-7.283v-9.512Zm-.086,18.022H724v-18.749l7.273-.041v10.509l-6.644,8.28Z" transform="translate(-724 264)"/></clipPath><clipPath id="kx"><path class="a" d="M711.71-267.83h3.429v-1.309H711.71Zm-.71.861h4.849V-270H711Z" transform="translate(-711 270)"/></clipPath><clipPath id="ky"><path class="a" d="M725.719-267.83h5.836v-1.309h-5.836Zm-.719.861h7.273V-270H725Z" transform="translate(-725 270)"/></clipPath><clipPath id="kz"><path class="a" d="M543.711-34.887h15.247V-48.263H543.711ZM543-34.15h16.668V-49H543Z" transform="translate(-543 49)"/></clipPath><clipPath id="la"><path class="a" d="M621.711-62.555h10.7v-3.739h-10.7Zm-.711.707h12.122V-67H621Z" transform="translate(-621 67)"/></clipPath><clipPath id="lb"><path class="a" d="M624.8-231.089H561v-.723h63.461L641.664-252l.555.467L624.8-231.089" transform="translate(-561 252)"/></clipPath><clipPath id="lc"><path class="a" d="M569-33.756h.909V-48H569Z" transform="translate(-569 48)"/></clipPath><clipPath id="ld"><path class="a" d="M543-33.091h8.182V-34H543Z" transform="translate(-543 34)"/></clipPath><clipPath id="le"><path class="a" d="M543-16.091h8.182V-17H543Z" transform="translate(-543 17)"/></clipPath><clipPath id="lf"><path class="a" d="M625-138.484h.909V-150H625Z" transform="translate(-625 150)"/></clipPath><clipPath id="lg"><path class="a" d="M599-131.091h16.971V-132H599Z" transform="translate(-599 132)"/></clipPath><clipPath id="lh"><path class="a" d="M713-138.484h.909V-150H713Z" transform="translate(-713 150)"/></clipPath><clipPath id="li"><path class="a" d="M685-131.091h17.274V-132H685Z" transform="translate(-685 132)"/></clipPath><clipPath id="lj"><path class="a" d="M715-63.15h.909V-88H715Z" transform="translate(-715 88)"/></clipPath><clipPath id="lk"><path class="a" d="M690-66.091h15.456V-67H690Z" transform="translate(-690 67)"/></clipPath></defs><g transform="translate(0 29.699)"><g class="c" transform="translate(76.067 39.7)"><path class="d" d="M246-90.787h11.213V-102H246Z" transform="translate(-247.515 100.485)"/></g><g class="e" transform="translate(72.127 35.76)"><path class="d" d="M233-100.15h14.85V-115H233Z" transform="translate(-234.515 113.485)"/></g><g class="f" transform="translate(67.884 31.215)"><path class="d" d="M219-110.6h19.092V-130H219Z" transform="translate(-220.515 128.485)"/></g><g class="g" transform="translate(80.612 44.246)"><path class="d" d="M261-80.333h6.667V-87H261Z" transform="translate(-262.515 85.485)"/></g><g class="h" transform="translate(46.064 64.854)"><path class="i" d="M147-12.333h55.459V-19H147Z" transform="translate(-148.515 17.485)"/></g><g class="j" transform="translate(54.853 39.094)"><path class="i" d="M176-75.21h24.85V-104H176Z" transform="translate(-177.515 102.485)"/></g><g class="k" transform="translate(5.152 2.727)"><path class="i" d="M12-158.237H64.125V-224H12Z" transform="translate(-13.515 222.485)"/></g><g class="l" transform="translate(0.909 0.303)"><path class="i" d="M-2-209.574H58.611V-232H-2Z" transform="translate(0.485 230.485)"/></g><g class="m" transform="translate(76.37 2.424)"><path class="i" d="M247-159.237h52.125V-225H247Z" transform="translate(-248.515 223.485)"/></g><g class="n" transform="translate(72.127 0.909)"><path class="i" d="M233-206.362h60.611V-230H233Z" transform="translate(-234.515 228.485)"/></g><g class="o" transform="translate(3.334 64.854)"><path class="i" d="M6-12.333H61.459V-19H6Z" transform="translate(-7.515 17.485)"/></g><g class="p" transform="translate(75.157 64.854)"><path class="i" d="M243-12.333h55.459V-19H243Z" transform="translate(-244.515 17.485)"/></g><g class="q" transform="translate(54.55 36.366)"><path class="r" d="M175-106.939h25.153V-113H175Z" transform="translate(-176.515 111.485)"/></g><g class="s" transform="translate(56.368 64.854)"><path class="t" d="M181-12.333h21.517V-19H181Z" transform="translate(-182.515 17.485)"/></g><g class="u" transform="translate(54.853 39.094)"><path class="t" d="M176-99.454h24.85V-104H176Z" transform="translate(-177.515 102.485)"/></g><g class="v" transform="translate(74.854 39.094)"><path class="t" d="M242-75.21h4.849V-104H242Z" transform="translate(-243.515 102.485)"/></g><g class="w" transform="translate(54.55 39.094)"><path class="t" d="M175-75.21h4.546V-104H175Z" transform="translate(-176.515 102.485)"/></g><g class="x" transform="translate(62.126 52.731)"><path class="r" d="M200-43.544h9.7V-59H200Z" transform="translate(-201.515 57.485)"/></g><g class="y" transform="translate(67.581 52.731)"><path class="t" d="M218-43.544h3.94V-59H218Z" transform="translate(-219.515 57.485)"/></g><g class="z" transform="translate(62.126 52.731)"><path class="t" d="M200-55.06h9.7V-59H200Z" transform="translate(-201.515 57.485)"/></g><g class="aa" transform="translate(62.126 52.731)"><path class="t" d="M200-43.544h3.94V-59H200Z" transform="translate(-201.515 57.485)"/></g><g class="ab" transform="translate(83.643 45.458)"><path class="ac" d="M271-69.363h16.668V-83H271Z" transform="translate(-272.515 81.485)"/></g><g class="ad" transform="translate(83.34 45.458)"><path class="t" d="M270-69.363h16.668V-83H270Z" transform="translate(-271.515 81.485)"/></g><g class="ae" transform="translate(106.069 45.458)"><path class="ac" d="M345-69.363h16.668V-83H345Z" transform="translate(-346.515 81.485)"/></g><g class="af" transform="translate(105.766 45.458)"><path class="t" d="M344-69.363h16.668V-83H344Z" transform="translate(-345.515 81.485)"/></g><g class="ag" transform="translate(106.069 27.881)"><path class="ac" d="M345-127.363h16.668V-141H345Z" transform="translate(-346.515 139.485)"/></g><g class="ah" transform="translate(105.766 27.881)"><path class="t" d="M344-127.363h16.668V-141H344Z" transform="translate(-345.515 139.485)"/></g><g class="ai" transform="translate(83.643 27.881)"><path class="ac" d="M271-127.363h16.668V-141H271Z" transform="translate(-272.515 139.485)"/></g><g class="aj" transform="translate(83.34 27.881)"><path class="t" d="M270-127.363h16.668V-141H270Z" transform="translate(-271.515 139.485)"/></g><g class="ak" transform="translate(96.371 12.425)"><path class="ac" d="M313-179.575h11.213V-192H313Z" transform="translate(-314.515 190.485)"/></g><g class="al" transform="translate(96.674 13.031)"><path class="i" d="M314-179.7h11.213V-190H314Z" transform="translate(-315.515 188.485)"/></g><g class="am" transform="translate(99.099 16.062)"><path class="i" d="M322-171.514h8.486V-180H322Z" transform="translate(-323.515 178.485)"/></g><g class="an" transform="translate(76.37 3.334)"><path class="t" d="M247-200.483h52.125V-222H247Z" transform="translate(-248.515 220.485)"/></g><g class="ao" transform="translate(100.917 12.425)"><path class="t" d="M328-179.575h7.576V-192H328Z" transform="translate(-329.515 190.485)"/></g><g class="ap" transform="translate(34.851 45.458)"><path class="ac" d="M110-69.363h16.668V-83H110Z" transform="translate(-111.515 81.485)"/></g><g class="aq" transform="translate(34.851 45.458)"><path class="t" d="M110-69.363h16.668V-83H110Z" transform="translate(-111.515 81.485)"/></g><g class="ar" transform="translate(34.851 27.881)"><path class="ac" d="M110-127.363h16.668V-141H110Z" transform="translate(-111.515 139.485)"/></g><g class="as" transform="translate(34.851 27.881)"><path class="t" d="M110-127.363h16.668V-141H110Z" transform="translate(-111.515 139.485)"/></g><g class="at" transform="translate(12.425 27.881)"><path class="ac" d="M36-127.363H52.668V-141H36Z" transform="translate(-37.515 139.485)"/></g><g class="au" transform="translate(12.425 27.881)"><path class="t" d="M36-127.363H52.668V-141H36Z" transform="translate(-37.515 139.485)"/></g><g class="av" transform="translate(12.425 46.064)"><path class="ac" d="M36-67.363H52.668V-81H36Z" transform="translate(-37.515 79.485)"/></g><g class="aw" transform="translate(12.425 46.064)"><path class="t" d="M36-67.363H52.668V-81H36Z" transform="translate(-37.515 79.485)"/></g><g class="ax" transform="translate(25.456 12.425)"><path class="ac" d="M79-179.575H90.213V-192H79Z" transform="translate(-80.515 190.485)"/></g><g class="ay" transform="translate(26.366 13.334)"><path class="i" d="M82-179H92v-10H82Z" transform="translate(-83.515 187.485)"/></g><g class="az" transform="translate(28.79 16.365)"><path class="i" d="M90-170.514h8.182V-179H90Z" transform="translate(-91.515 177.485)"/></g><g class="ba" transform="translate(5.455 3.031)"><path class="t" d="M13-203.3H65.125V-223H13Z" transform="translate(-14.515 221.485)"/></g><g class="bb" transform="translate(30.002 12.425)"><path class="t" d="M94-179.575h7.576V-192H94Z" transform="translate(-95.515 190.485)"/></g><g class="bc" transform="translate(62.126 52.731)"><path class="t" d="M200-54.757h4.243V-59H200Z" transform="translate(-201.515 57.485)"/></g><g class="bd" transform="translate(62.429 52.731)"><path class="t" d="M201-51.121h7.879V-59H201Z" transform="translate(-202.515 57.485)"/></g><g class="be" transform="translate(62.126 56.065)"><path class="t" d="M200-36.484h9.7V-48H200Z" transform="translate(-201.515 46.485)"/></g><g class="bf" transform="translate(67.581 63.641)"><path class="t" d="M218-18.757h4.243V-23H218Z" transform="translate(-219.515 21.485)"/></g><g class="bg" transform="translate(63.641 59.702)"><path class="t" d="M205-27.818h8.182V-36H205Z" transform="translate(-206.515 34.485)"/></g><g class="bh" transform="translate(62.126 53.034)"><path class="t" d="M200-46.484h9.7V-58H200Z" transform="translate(-201.515 56.485)"/></g><g class="bi" transform="translate(105.766 31.821)"><path class="bj" d="M344-124.06h16.668V-128H344Z" transform="translate(-345.515 126.485)"/></g><g class="bk" transform="translate(113.948 27.881)"><path class="bj" d="M371-127.06h3.94V-141H371Z" transform="translate(-372.515 139.485)"/></g><g class="bl" transform="translate(110.009 27.881)"><path class="bj" d="M358-127.06h3.94V-141H358Z" transform="translate(-359.515 139.485)"/></g><g class="bm" transform="translate(105.766 49.398)"><path class="bj" d="M344-66.06h16.668V-70H344Z" transform="translate(-345.515 68.485)"/></g><g class="bn" transform="translate(113.948 45.458)"><path class="bj" d="M371-69.06h3.94V-83H371Z" transform="translate(-372.515 81.485)"/></g><g class="bo" transform="translate(110.009 45.458)"><path class="bj" d="M358-69.06h3.94V-83H358Z" transform="translate(-359.515 81.485)"/></g><g class="bp" transform="translate(83.34 49.398)"><path class="bj" d="M270-66.06h16.668V-70H270Z" transform="translate(-271.515 68.485)"/></g><g class="bq" transform="translate(91.522 45.458)"><path class="bj" d="M297-69.06h3.94V-83H297Z" transform="translate(-298.515 81.485)"/></g><g class="br" transform="translate(87.583 45.458)"><path class="bj" d="M284-69.06h3.94V-83H284Z" transform="translate(-285.515 81.485)"/></g><g class="bs" transform="translate(83.34 31.821)"><path class="bj" d="M270-124.06h16.668V-128H270Z" transform="translate(-271.515 126.485)"/></g><g class="bt" transform="translate(91.522 27.881)"><path class="bj" d="M297-127.06h3.94V-141H297Z" transform="translate(-298.515 139.485)"/></g><g class="bu" transform="translate(87.583 27.881)"><path class="bj" d="M284-127.06h3.94V-141H284Z" transform="translate(-285.515 139.485)"/></g><g class="bv" transform="translate(76.067 3.031)"><path class="bj" d="M246-157.237h52.731V-223H246Z" transform="translate(-247.515 221.485)"/></g><g class="bw" transform="translate(71.218 0.909)"><path class="bj" d="M230-205.756h62.429V-230H230Z" transform="translate(-231.515 228.485)"/></g><g class="bx" transform="translate(83.037 45.458)"><path class="bj" d="M269-68.756h17.274V-83H269Z" transform="translate(-270.515 81.485)"/></g><g class="by" transform="translate(105.463 45.458)"><path class="bj" d="M343-68.756h17.274V-83H343Z" transform="translate(-344.515 81.485)"/></g><g class="bz" transform="translate(83.037 27.578)"><path class="bj" d="M269-127.756h17.274V-142H269Z" transform="translate(-270.515 140.485)"/></g><g class="ca" transform="translate(105.463 27.578)"><path class="bj" d="M343-127.756h17.274V-142H343Z" transform="translate(-344.515 140.485)"/></g><g class="cb" transform="translate(74.551 64.854)"><path class="bj" d="M241-11.727h55.762V-19H241Z" transform="translate(-242.515 17.485)"/></g><g class="cc" transform="translate(95.765 12.122)"><path class="bj" d="M311-179.969h13.031V-193H311Z" transform="translate(-312.515 191.485)"/></g><g class="cd" transform="translate(34.548 31.821)"><path class="bj" d="M109-124.06h16.668V-128H109Z" transform="translate(-110.515 126.485)"/></g><g class="ce" transform="translate(43.337 27.881)"><path class="bj" d="M138-127.06h3.94V-141H138Z" transform="translate(-139.515 139.485)"/></g><g class="cf" transform="translate(38.488 27.881)"><path class="bj" d="M122-127.06h3.94V-141H122Z" transform="translate(-123.515 139.485)"/></g><g class="cg" transform="translate(34.548 49.398)"><path class="bj" d="M109-66.06h16.668V-70H109Z" transform="translate(-110.515 68.485)"/></g><g class="ch" transform="translate(43.337 45.458)"><path class="bj" d="M138-69.06h3.94V-83H138Z" transform="translate(-139.515 81.485)"/></g><g class="ci" transform="translate(38.488 45.458)"><path class="bj" d="M122-69.06h3.94V-83H122Z" transform="translate(-123.515 81.485)"/></g><g class="cj" transform="translate(12.122 31.821)"><path class="bj" d="M35-124.06H51.668V-128H35Z" transform="translate(-36.515 126.485)"/></g><g class="ck" transform="translate(20.608 27.881)"><path class="bj" d="M63-127.06h3.637V-141H63Z" transform="translate(-64.515 139.485)"/></g><g class="cl" transform="translate(16.062 27.881)"><path class="bj" d="M48-127.06h3.94V-141H48Z" transform="translate(-49.515 139.485)"/></g><g class="cm" transform="translate(55.459 64.854)"><path class="bj" d="M178-11.727h22.729V-19H178Z" transform="translate(-179.515 17.485)"/></g><g class="cn" transform="translate(54.247 38.791)"><path class="bj" d="M174-75.3h25.153V-105H174Z" transform="translate(-175.515 103.485)"/></g><g class="co" transform="translate(54.247 36.063)"><path class="bj" d="M174-107.333h25.153V-114H174Z" transform="translate(-175.515 112.485)"/></g><g class="cp" transform="translate(59.399 49.701)"><path class="bj" d="M191-50.211h15.456V-69H191Z" transform="translate(-192.515 67.485)"/></g><g class="cq" transform="translate(61.823 52.428)"><path class="bj" d="M199-43.938h10.3V-60H199Z" transform="translate(-200.515 58.485)"/></g><g class="cr" transform="translate(4.849 3.031)"><path class="bj" d="M11-157.237H63.731V-223H11Z" transform="translate(-12.515 221.485)"/></g><g class="cs"><path class="bj" d="M-5-209.968H57.429V-233H-5Z" transform="translate(3.485 231.485)"/></g><g class="ct" transform="translate(34.245 45.458)"><path class="bj" d="M108-68.756h17.274V-83H108Z" transform="translate(-109.515 81.485)"/></g><g class="cu" transform="translate(11.819 27.578)"><path class="bj" d="M34-127.756H51.274V-142H34Z" transform="translate(-35.515 140.485)"/></g><g class="cv" transform="translate(12.122 49.701)"><path class="bj" d="M35-65.06H51.668V-69H35Z" transform="translate(-36.515 67.485)"/></g><g class="cw" transform="translate(20.608 45.761)"><path class="bj" d="M63-68.06h3.637V-82H63Z" transform="translate(-64.515 80.485)"/></g><g class="cx" transform="translate(16.062 45.761)"><path class="bj" d="M48-68.06h3.94V-82H48Z" transform="translate(-49.515 80.485)"/></g><g class="cy" transform="translate(11.819 45.458)"><path class="bj" d="M34-68.756H51.274V-83H34Z" transform="translate(-35.515 81.485)"/></g><g class="cz" transform="translate(34.245 27.578)"><path class="bj" d="M108-127.756h17.274V-142H108Z" transform="translate(-109.515 140.485)"/></g><g class="da" transform="translate(2.424 64.854)"><path class="bj" d="M3-11.727H59.974V-19H3Z" transform="translate(-4.515 17.485)"/></g><g class="db" transform="translate(24.85 12.122)"><path class="bj" d="M77-179.969H90.031V-193H77Z" transform="translate(-78.515 191.485)"/></g></g><g transform="translate(294.872)"><g class="dc" transform="translate(19.396 45.458)"><path class="d" d="M1032-161.3h4.243V-181H1032Z" transform="translate(-1033.515 179.485)"/></g><g class="dd" transform="translate(15.759 86.37)"><path class="d" d="M1020-31.15h14.85V-46H1020Z" transform="translate(-1021.515 44.485)"/></g><g class="de" transform="translate(11.516 82.128)"><path class="d" d="M1006-40.6h19.4V-60H1006Z" transform="translate(-1007.515 58.485)"/></g><g class="df" transform="translate(7.273 77.582)"><path class="d" d="M992-51.362h23.638V-75H992Z" transform="translate(-993.515 73.485)"/></g><g class="dg" transform="translate(0.303 57.883)"><path class="d" d="M969-136.06h3.94V-140H969Z" transform="translate(-970.515 138.485)"/></g><g class="dh" transform="translate(20.304 91.219)"><path class="d" d="M1035-19.7h10.3V-30H1035Z" transform="translate(-1036.515 28.485)"/></g><g class="di" transform="translate(24.244 94.856)"><path class="d" d="M1048-11.636h6.364V-18H1048Z" transform="translate(-1049.515 16.485)"/></g><g class="dj" transform="translate(77.279 98.189)"><path class="dk" d="M1223-3.666h3.637V-7H1223Z" transform="translate(-1224.515 5.485)"/></g><g class="dl" transform="translate(5.152 39.7)"><path class="d" d="M985-164.24h34.851V-200H985Z" transform="translate(-986.515 198.485)"/></g><g class="dm" transform="translate(4.849 52.125)"><path class="d" d="M984-113.845h44.246V-159H984Z" transform="translate(-985.515 157.485)"/></g><g class="dn" transform="translate(5.152 49.095)"><path class="d" d="M985-125.36h42.427V-169H985Z" transform="translate(-986.515 167.485)"/></g><g class="do" transform="translate(4.849 54.247)"><path class="d" d="M984-104.724h45.761V-152H984Z" transform="translate(-985.515 150.485)"/></g><g class="dp" transform="translate(5.152 46.973)"><path class="d" d="M985-133.875h40.306V-176H985Z" transform="translate(-986.515 174.485)"/></g><g class="dq" transform="translate(5.455 36.67)"><path class="d" d="M986-176.058h33.033V-210H986Z" transform="translate(-987.515 208.485)"/></g><g class="dr" transform="translate(5.455 44.246)"><path class="d" d="M986-145.3h38.488V-185H986Z" transform="translate(-987.515 183.485)"/></g><g class="ds" transform="translate(5.455 41.518)"><path class="d" d="M986-155.815h36.973V-194H986Z" transform="translate(-987.515 192.485)"/></g><g class="dt" transform="translate(33.942 72.43)"><path class="d" d="M1080-62.907h29.7V-92H1080Z" transform="translate(-1081.515 90.485)"/></g><g class="du" transform="translate(46.367 80.006)"><path class="d" d="M1121-45.483h22.426V-67H1121Z" transform="translate(-1122.515 65.485)"/></g><g class="dv" transform="translate(51.216 82.734)"><path class="d" d="M1137-39.211h19.4V-58H1137Z" transform="translate(-1138.515 56.485)"/></g><g class="dw" transform="translate(37.579 74.854)"><path class="d" d="M1092-57.331h27.578V-84H1092Z" transform="translate(-1093.515 82.485)"/></g><g class="dx" transform="translate(68.793 93.038)"><path class="d" d="M1195-15.514h9.092V-24H1195Z" transform="translate(-1196.515 22.485)"/></g><g class="dy" transform="translate(55.459 85.158)"><path class="d" d="M1151-33.635h17.274V-50H1151Z" transform="translate(-1152.515 48.485)"/></g><g class="dz" transform="translate(64.248 90.31)"><path class="d" d="M1180-21.787h12.122V-33H1180Z" transform="translate(-1181.515 31.485)"/></g><g class="ea" transform="translate(60.005 87.886)"><path class="d" d="M1166-27.363h14.244V-41H1166Z" transform="translate(-1167.515 39.485)"/></g><g class="eb" transform="translate(42.428 77.582)"><path class="d" d="M1108-51.059h24.547V-75H1108Z" transform="translate(-1109.515 73.485)"/></g><g class="ec" transform="translate(29.093 69.702)"><path class="d" d="M1064-69.179h32.73V-101H1064Z" transform="translate(-1065.515 99.485)"/></g><g class="ed" transform="translate(11.516 59.399)"><path class="d" d="M1006-92.875h43.034V-135H1006Z" transform="translate(-1007.515 133.485)"/></g><g class="ee" transform="translate(7.576 56.974)"><path class="d" d="M993-98.451h45.155V-143H993Z" transform="translate(-994.515 141.485)"/></g><g class="ef" transform="translate(16.062 62.126)"><path class="d" d="M1021-86.6h40V-126h-40Z" transform="translate(-1022.515 124.485)"/></g><g class="eg" transform="translate(24.85 67.278)"><path class="d" d="M1050-74.755h34.851V-109H1050Z" transform="translate(-1051.515 107.485)"/></g><g class="eh" transform="translate(20.608 64.55)"><path class="d" d="M1036-81.027h37.882V-118H1036Z" transform="translate(-1037.515 116.485)"/></g><g class="ei" transform="translate(11.819 68.49)"><path class="d" d="M1007-71.967h33.033V-105H1007Z" transform="translate(-1008.515 103.485)"/></g><g class="ej" transform="translate(38.185 94.856)"><path class="d" d="M1094-11.333h6.667V-18H1094Z" transform="translate(-1095.515 16.485)"/></g><g class="ek" transform="translate(7.576 64.247)"><path class="d" d="M993-81.724h37.276V-119H993Z" transform="translate(-994.515 117.485)"/></g><g class="el" transform="translate(25.153 82.128)"><path class="d" d="M1051-40.6h19.4V-60H1051Z" transform="translate(-1052.515 58.485)"/></g><g class="em" transform="translate(33.942 90.31)"><path class="d" d="M1080-21.787h11.213V-33H1080Z" transform="translate(-1081.515 31.485)"/></g><g class="en" transform="translate(29.396 86.37)"><path class="d" d="M1065-30.847h15.153V-46H1065Z" transform="translate(-1066.515 44.485)"/></g><g class="eo" transform="translate(16.062 73.036)"><path class="d" d="M1021-61.513h28.487V-90H1021Z" transform="translate(-1022.515 88.485)"/></g><g class="ep" transform="translate(20.608 77.582)"><path class="d" d="M1036-51.059h23.941V-75H1036Z" transform="translate(-1037.515 73.485)"/></g><g class="eq" transform="translate(4.849 92.128)"><path class="i" d="M984-17.605h86.37V-27H984Z" transform="translate(-985.515 25.485)"/></g><g class="er" transform="translate(4.849 36.063)"><path class="i" d="M984-152.6h37.882V-212H984Z" transform="translate(-985.515 210.485)"/></g><g class="es" transform="translate(11.516 41.215)"><path class="r" d="M1006-182.878h8.182V-195H1006Z" transform="translate(-1007.515 193.485)"/></g><g class="et" transform="translate(39.397 6.061)"><path class="i" d="M1098-221.6h52.125V-311H1098Z" transform="translate(-1099.515 309.485)"/></g><g class="eu" transform="translate(0.606 30.912)"><path class="i" d="M970-194.755h42.124V-229H970Z" transform="translate(-971.515 227.485)"/></g><g class="ev" transform="translate(39.094 0.909)"><path class="i" d="M1097-290.421h53.944V-328H1097Z" transform="translate(-1098.515 326.485)"/></g><g class="ew" transform="translate(10.304 38.791)"><path class="i" d="M1002-198.151h10V-203h-10Z" transform="translate(-1003.515 201.485)"/></g><g class="ex" transform="translate(39.397 56.671)"><path class="ey" d="M1098-135.211h55.459V-144H1098Z" transform="translate(-1099.515 142.485)"/></g><g class="ez" transform="translate(15.456 58.792)"><path class="ac" d="M1019-123.969h17.88V-137H1019Z" transform="translate(-1020.515 135.485)"/></g><g class="fa" transform="translate(45.458 68.187)"><path class="ac" d="M1118-89.332h38.488V-106H1118Z" transform="translate(-1119.515 104.485)"/></g><g class="fb" transform="translate(45.155 20.608)"><path class="ac" d="M1117-223.6h14.244V-263H1117Z" transform="translate(-1118.515 261.485)"/></g><g class="fc" transform="translate(59.702 34.851)"><path class="ac" d="M1165-190.847h24.85V-216H1165Z" transform="translate(-1166.515 214.485)"/></g><g class="fd" transform="translate(39.397 62.732)"><path class="t" d="M1098-120.06h51.822V-124H1098Z" transform="translate(-1099.515 122.485)"/></g><g class="fe" transform="translate(39.397 6.061)"><path class="t" d="M1098-277.664h51.822V-311H1098Z" transform="translate(-1099.515 309.485)"/></g><g class="ff" transform="translate(4.849 36.063)"><path class="t" d="M984-183.513h37.882V-212H984Z" transform="translate(-985.515 210.485)"/></g><g class="fg" transform="translate(37.579 36.063)"><path class="t" d="M1092-152.6h4.849V-212H1092Z" transform="translate(-1093.515 210.485)"/></g><g class="fh" transform="translate(11.819 92.431)"><path class="t" d="M1007-17.211h6.667V-26H1007Z" transform="translate(-1008.515 24.485)"/></g><g class="fi" transform="translate(44.246 83.946)"><path class="t" d="M1114-50.06h40.912V-54H1114Z" transform="translate(-1115.515 52.485)"/></g><g class="fj" transform="translate(61.823 36.973)"><path class="i" d="M1172-185.968h23.032V-209H1172Z" transform="translate(-1173.515 207.485)"/></g><g class="fk" transform="translate(66.066 41.215)"><path class="i" d="M1186-176.211h18.789V-195H1186Z" transform="translate(-1187.515 193.485)"/></g><g class="fl" transform="translate(59.399 34.548)"><path class="i" d="M1164-195.786h21.517V-217H1164Z" transform="translate(-1165.515 215.485)"/></g><g class="fm" transform="translate(59.702 34.851)"><path class="t" d="M1165-191.15h4.546V-216H1165Z" transform="translate(-1166.515 214.485)"/></g><g class="fn" transform="translate(59.702 34.851)"><path class="t" d="M1165-211.454h25.153V-216H1165Z" transform="translate(-1166.515 214.485)"/></g><g class="fo" transform="translate(45.458 68.49)"><path class="t" d="M1118-101.06h38.488V-105H1118Z" transform="translate(-1119.515 103.485)"/></g><g class="fp" transform="translate(46.064 68.187)"><path class="t" d="M1120-89.635h3.94V-106H1120Z" transform="translate(-1121.515 104.485)"/></g><g class="fq" transform="translate(45.155 20.911)"><path class="t" d="M1117-223.209h4.546V-262H1117Z" transform="translate(-1118.515 260.485)"/></g><g class="fr" transform="translate(45.155 21.214)"><path class="t" d="M1117-250.7h14.547V-261H1117Z" transform="translate(-1118.515 259.485)"/></g><g class="fs" transform="translate(15.759 58.792)"><path class="r" d="M1020-127.3h9.7V-137H1020Z" transform="translate(-1021.515 135.485)"/></g><g class="ft" transform="translate(16.062 58.792)"><path class="r" d="M1021-130.939h6.061V-137H1021Z" transform="translate(-1022.515 135.485)"/></g><g class="fu" transform="translate(15.759 58.792)"><path class="r" d="M1020-124.272h13.94V-137H1020Z" transform="translate(-1021.515 135.485)"/></g><g class="fv" transform="translate(19.396 58.792)"><path class="r" d="M1032-124.272h14.244V-137H1032Z" transform="translate(-1033.515 135.485)"/></g><g class="fw" transform="translate(27.275 65.157)"><path class="r" d="M1058-109.636h6.364V-116H1058Z" transform="translate(-1059.515 114.485)"/></g><g class="fx" transform="translate(23.638 61.823)"><path class="r" d="M1046-117h10v-10h-10Z" transform="translate(-1047.515 125.485)"/></g><g class="fy" transform="translate(4.849 96.674)"><path class="t" d="M984-7.151h13.637V-12H984Z" transform="translate(-985.515 10.485)"/></g><g class="fz" transform="translate(29.699 96.674)"><path class="t" d="M1066-7.151h60.914V-12H1066Z" transform="translate(-1067.515 10.485)"/></g><g class="ew" transform="translate(10.304 38.791)"><path class="r" d="M1002-198.151h10V-203h-10Z" transform="translate(-1003.515 201.485)"/></g><g class="ga" transform="translate(11.213 41.544)"><path class="t" d="M1005-190.027h8.789v-3.889H1005Z" transform="translate(-1006.515 192.401)"/></g><g class="gb" transform="translate(15.456 59.399)"><path class="t" d="M1019-131.06h17.88V-135H1019Z" transform="translate(-1020.515 133.485)"/></g><g class="gc" transform="translate(15.759 58.792)"><path class="t" d="M1020-123.666h4.243V-137H1020Z" transform="translate(-1021.515 135.485)"/></g><g class="gd" transform="translate(18.486 76.976)"><path class="t" d="M1029-72.757h11.516V-77H1029Z" transform="translate(-1030.515 75.485)"/></g><g class="ge" transform="translate(25.76 76.976)"><path class="t" d="M1053-58.514h3.94V-77H1053Z" transform="translate(-1054.515 75.485)"/></g><g class="gf" transform="translate(18.789 76.976)"><path class="t" d="M1030-58.514h4.243V-77H1030Z" transform="translate(-1031.515 75.485)"/></g><g class="gg" transform="translate(18.486 76.976)"><path class="r" d="M1029-58.514h11.516V-77H1029Z" transform="translate(-1030.515 75.485)"/></g><g class="gh" transform="translate(18.789 76.976)"><path class="t" d="M1030-67h10V-77h-10Z" transform="translate(-1031.515 75.485)"/></g><g class="gi" transform="translate(18.486 81.825)"><path class="t" d="M1029-47.666h11.516V-61H1029Z" transform="translate(-1030.515 59.485)"/></g><g class="gj" transform="translate(24.85 89.704)"><path class="t" d="M1050-30.151h4.849V-35H1050Z" transform="translate(-1051.515 33.485)"/></g><g class="gk" transform="translate(20.608 86.067)"><path class="t" d="M1036-37.908h9.092V-47H1036Z" transform="translate(-1037.515 45.485)"/></g><g class="gl" transform="translate(18.486 77.582)"><path class="t" d="M1029-61.666h11.516V-75H1029Z" transform="translate(-1030.515 73.485)"/></g><g class="gm" transform="translate(10.91 40.912)"><path class="bj" d="M1004-182.969h9.092V-196H1004Z" transform="translate(-1005.515 194.485)"/></g><g class="gm" transform="translate(10.91 40.912)"><path class="bj" d="M1004-182.969h9.092V-196H1004Z" transform="translate(-1005.515 194.485)"/></g><g class="gn" transform="translate(39.094 5.758)"><path class="bj" d="M1097-221.993h52.428V-312H1097Z" transform="translate(-1098.515 310.485)"/></g><g class="go" transform="translate(39.094 5.758)"><path class="bj" d="M1097-221.993h52.428V-312H1097Z" transform="translate(-1098.515 310.485)"/></g><g class="gp" transform="translate(4.243 35.457)"><path class="bj" d="M982-153.389h38.488V-214H982Z" transform="translate(-983.515 212.485)"/></g><g class="gp" transform="translate(4.243 35.457)"><path class="bj" d="M982-153.389h38.488V-214H982Z" transform="translate(-983.515 212.485)"/></g><g class="gq" transform="translate(0 30.608)"><path class="bj" d="M968-194.543h42.731V-230H968Z" transform="translate(-969.515 228.485)"/></g><g class="gr" transform="translate(39.397 0.303)"><path class="bj" d="M1098-291.209h54.247V-330H1098Z" transform="translate(-1099.515 328.485)"/></g><g class="gs" transform="translate(38.791)"><path class="bj" d="M1096-292.209h54.247V-331H1096Z" transform="translate(-1097.515 329.485)"/></g><g class="gt" transform="translate(15.153 58.489)"><path class="bj" d="M1018-124.363h18.486V-138H1018Z" transform="translate(-1019.515 136.485)"/></g><g class="gu" transform="translate(10.304 38.488)"><path class="bj" d="M1002-198.242h10.3V-204H1002Z" transform="translate(-1003.515 202.485)"/></g><g class="gv" transform="translate(22.426 58.792)"><path class="bj" d="M1042-123.969h3.94V-137H1042Z" transform="translate(-1043.515 135.485)"/></g><g class="gw" transform="translate(39.397 56.671)"><path class="bj" d="M1098-134.908h55.762V-144H1098Z" transform="translate(-1099.515 142.485)"/></g><g class="gx" transform="translate(4.546 92.128)"><path class="bj" d="M983-17.3h86.673V-27H983Z" transform="translate(-984.515 25.485)"/></g><g class="gy" transform="translate(15.153 92.128)"><path class="bj" d="M1018-17.3h17.88V-27H1018Z" transform="translate(-1019.515 25.485)"/></g><g class="gz" transform="translate(15.759 94.553)"><path class="bj" d="M1020-15.06h16.971V-19H1020Z" transform="translate(-1021.515 17.485)"/></g><g class="ha" transform="translate(15.456 72.43)"><path class="bj" d="M1019-85.636h17.577V-92H1019Z" transform="translate(-1020.515 90.485)"/></g><g class="hb" transform="translate(18.183 76.673)"><path class="bj" d="M1028-58.908h12.425V-78H1028Z" transform="translate(-1029.515 76.485)"/></g><g class="hc" transform="translate(45.458 67.884)"><path class="bj" d="M1118-89.726h38.791V-107H1118Z" transform="translate(-1119.515 105.485)"/></g><g class="hd" transform="translate(43.64 81.522)"><path class="bj" d="M1112-56.545h42.125V-62H1112Z" transform="translate(-1113.515 60.485)"/></g><g class="he" transform="translate(55.762 68.49)"><path class="bj" d="M1152-88.635h3.94V-105H1152Z" transform="translate(-1153.515 103.485)"/></g><g class="hf" transform="translate(70.612 68.49)"><path class="bj" d="M1201-88.635h3.94V-105H1201Z" transform="translate(-1202.515 103.485)"/></g><g class="hg" transform="translate(45.458 74.854)"><path class="bj" d="M1118-80.06h38.488V-84H1118Z" transform="translate(-1119.515 82.485)"/></g><g class="hh" transform="translate(45.155 20.305)"><path class="bj" d="M1117-224h14.85v-40H1117Z" transform="translate(-1118.515 262.485)"/></g><g class="hi" transform="translate(59.096 34.548)"><path class="bj" d="M1163-191.24h25.76V-217H1163Z" transform="translate(-1164.515 215.485)"/></g><g class="hj" transform="translate(70.308 34.851)"><path class="bj" d="M1200-190.847h3.94V-216H1200Z" transform="translate(-1201.515 214.485)"/></g></g><g transform="translate(160.013 16.971)"><g class="hk" transform="translate(15.759 52.731)"><path class="d" d="M575-89.787h11.213V-101H575Z" transform="translate(-576.515 99.485)"/></g><g class="hl" transform="translate(11.819 48.792)"><path class="d" d="M562-99.15h14.85V-114H562Z" transform="translate(-563.515 112.485)"/></g><g class="hm" transform="translate(7.576 44.549)"><path class="d" d="M548-108.6h19.092V-128H548Z" transform="translate(-549.515 126.485)"/></g><g class="hn" transform="translate(20.305 56.974)"><path class="d" d="M590-80.333h6.667V-87H590Z" transform="translate(-591.515 85.485)"/></g><g class="ho" transform="translate(43.64 79.703)"><path class="i" d="M667-7.151h35.154V-12H667Z" transform="translate(-668.515 10.485)"/></g><g class="hp" transform="translate(76.067 79.703)"><path class="i" d="M774-7.151h35.154V-12H774Z" transform="translate(-775.515 10.485)"/></g><g class="hq" transform="translate(72.127 75.763)"><path class="i" d="M761-18.03h37.579V-25H761Z" transform="translate(-762.515 23.485)"/></g><g class="hr" transform="translate(14.244 29.093)"><path class="i" d="M570-125.056h60.914V-179H570Z" transform="translate(-571.515 177.485)"/></g><g class="hs" transform="translate(10.91 26.972)"><path class="i" d="M559-182.06h65.46V-186H559Z" transform="translate(-560.515 184.485)"/></g><g class="ht" transform="translate(10.001 5.758)"><path class="i" d="M556-231.15H657.523V-256H556Z" transform="translate(-557.515 254.485)"/></g><g class="hu" transform="translate(72.127 8.486)"><path class="i" d="M761-176.691h37.276V-247H761Z" transform="translate(-762.515 245.485)"/></g><g class="hv" transform="translate(90.31 8.486)"><path class="i" d="M821-223.968h21.517V-247H821Z" transform="translate(-822.515 245.485)"/></g><g class="hw" transform="translate(14.244 9.092)"><path class="t" d="M570-221.362h95.159V-245H570Z" transform="translate(-571.515 243.485)"/></g><g class="hx" transform="translate(72.733 46.367)"><path class="i" d="M763-112.908h41.821V-122H763Z" transform="translate(-764.515 120.485)"/></g><g class="hy" transform="translate(24.85 56.368)"><path class="i" d="M605-60.816h21.82V-89H605Z" transform="translate(-606.515 87.485)"/></g><g class="hz" transform="translate(1.212 56.368)"><path class="i" d="M527-60.816h26.972V-89H527Z" transform="translate(-528.515 87.485)"/></g><g class="ia" transform="translate(21.517 36.366)"><path class="ac" d="M594-140.453h19.7V-155H594Z" transform="translate(-595.515 153.485)"/></g><g class="ib" transform="translate(47.883 36.366)"><path class="ac" d="M681-140.453h19.7V-155H681Z" transform="translate(-682.515 153.485)"/></g><g class="ic" transform="translate(49.095 55.156)"><path class="ac" d="M685-65.119h18.486V-93H685Z" transform="translate(-686.515 91.485)"/></g><g class="id" transform="translate(28.487 61.823)"><path class="ac" d="M617-63.424h14.547V-71H617Z" transform="translate(-618.515 69.485)"/></g><g class="ie" transform="translate(4.546 67.278)"><path class="ac" d="M538-35.726h19.4V-53H538Z" transform="translate(-539.515 51.485)"/></g><g class="if" transform="translate(85.461 58.792)"><path class="i" d="M805-61h15.153V-81H805Z" transform="translate(-806.515 79.485)"/></g><g class="ig" transform="translate(85.461 30.305)"><path class="ac" d="M805-156.211h14.244V-175H805Z" transform="translate(-806.515 173.485)"/></g><g class="ih" transform="translate(85.158 60.611)"><path class="r" d="M804-56.817h13.334V-75H804Z" transform="translate(-805.515 73.485)"/></g><g class="ii" transform="translate(4.546 67.278)"><path class="ac" d="M538-35.726h11.213V-53H538Z" transform="translate(-539.515 51.485)"/></g><g class="ij" transform="translate(20.911 80.006)"><path class="t" d="M592-6.454h7.273V-11H592Z" transform="translate(-593.515 9.485)"/></g><g class="ik" transform="translate(1.212 80.006)"><path class="t" d="M527-6.454h6.667V-11H527Z" transform="translate(-528.515 9.485)"/></g><g class="il" transform="translate(85.158 62.429)"><path class="t" d="M804-65.06h11.213V-69H804Z" transform="translate(-805.515 67.485)"/></g><g class="im" transform="translate(92.432 62.429)"><path class="t" d="M828-52.635h3.94V-69H828Z" transform="translate(-829.515 67.485)"/></g><g class="in" transform="translate(47.883 36.67)"><path class="t" d="M681-150.06h20V-154H681Z" transform="translate(-682.515 152.485)"/></g><g class="io" transform="translate(47.883 36.366)"><path class="t" d="M681-140.453h4.243V-155H681Z" transform="translate(-682.515 153.485)"/></g><g class="ip" transform="translate(21.214 36.67)"><path class="t" d="M593-150.06h20V-154H593Z" transform="translate(-594.515 152.485)"/></g><g class="iq" transform="translate(21.214 36.366)"><path class="t" d="M593-140.453h4.243V-155H593Z" transform="translate(-594.515 153.485)"/></g><g class="ir" transform="translate(49.398 55.156)"><path class="t" d="M686-65.119h4.243V-93H686Z" transform="translate(-687.515 91.485)"/></g><g class="is" transform="translate(49.095 55.156)"><path class="t" d="M685-88.757h18.486V-93H685Z" transform="translate(-686.515 91.485)"/></g><g class="it" transform="translate(28.487 61.52)"><path class="t" d="M617-68.06h14.547V-72H617Z" transform="translate(-618.515 70.485)"/></g><g class="iu" transform="translate(28.184 61.823)"><path class="t" d="M616-63.424h3.94V-71H616Z" transform="translate(-617.515 69.485)"/></g><g class="iv" transform="translate(72.43 46.064)"><path class="r" d="M762-113.605h8.485V-123H762Z" transform="translate(-763.515 121.485)"/></g><g class="iw" transform="translate(69.096 28.79)"><path class="t" d="M751-126.056h6.061V-180H751Z" transform="translate(-752.515 178.485)"/></g><g class="ix" transform="translate(1.515 56.368)"><path class="t" d="M528-85.06h45.155V-89H528Z" transform="translate(-529.515 87.485)"/></g><g class="iy" transform="translate(25.457 56.368)"><path class="r" d="M607-85.06h21.517V-89H607Z" transform="translate(-608.515 87.485)"/></g><g class="iz" transform="translate(13.031 67.581)"><path class="r" d="M566-42.908h9.092V-52H566Z" transform="translate(-567.515 50.485)"/></g><g class="ja" transform="translate(12.728 67.278)"><path class="r" d="M565-48.151h4.849V-53H565Z" transform="translate(-566.515 51.485)"/></g><g class="jb" transform="translate(13.031 67.884)"><path class="r" d="M566-37.969h11.213V-51H566Z" transform="translate(-567.515 49.485)"/></g><g class="jc" transform="translate(13.031 72.127)"><path class="r" d="M566-24.575h11.213V-37H566Z" transform="translate(-567.515 35.485)"/></g><g class="jd" transform="translate(16.365 76.673)"><path class="r" d="M577-14.121h7.879V-22H577Z" transform="translate(-578.515 20.485)"/></g><g class="je" transform="translate(85.764 31.821)"><path class="i" d="M806-153.332h14.244V-170H806Z" transform="translate(-807.515 168.485)"/></g><g class="jf" transform="translate(86.976 36.063)"><path class="i" d="M810-142.969h13.031V-156H810Z" transform="translate(-811.515 154.485)"/></g><g class="jg" transform="translate(85.461 30.305)"><path class="i" d="M805-165.3h9.7V-175H805Z" transform="translate(-806.515 173.485)"/></g><g class="jh" transform="translate(85.461 30.305)"><path class="t" d="M805-171.06h14.244V-175H805Z" transform="translate(-806.515 173.485)"/></g><g class="ji" transform="translate(95.765 30.002)"><path class="t" d="M839-156.908h4.243V-176H839Z" transform="translate(-840.515 174.485)"/></g><g class="jj" transform="translate(82.431 75.763)"><path class="t" d="M795-18.333h4.849V-25H795Z" transform="translate(-796.515 23.485)"/></g><g class="jk" transform="translate(82.128 77.582)"><path class="t" d="M794-14.454h6.97V-19H794Z" transform="translate(-795.515 17.485)"/></g><g class="jl" transform="translate(64.854 75.763)"><path class="t" d="M737-18.03h10.3V-25H737Z" transform="translate(-738.515 23.485)"/></g><g class="jm" transform="translate(43.337 75.763)"><path class="t" d="M666-18.03h8.789V-25H666Z" transform="translate(-667.515 23.485)"/></g><g class="jn" transform="translate(20.911 75.763)"><path class="t" d="M592-18.03h7.273V-25H592Z" transform="translate(-593.515 23.485)"/></g><g class="jo" transform="translate(1.212 75.763)"><path class="t" d="M527-18.03h6.667V-25H527Z" transform="translate(-528.515 23.485)"/></g><g class="jp" transform="translate(0.303 55.156)"><path class="t" d="M524-88.757h28.487V-93H524Z" transform="translate(-525.515 91.485)"/></g><g class="jq" transform="translate(5.455 62.126)"><path class="dk" d="M541-63.939h6.667V-70H541Z" transform="translate(-542.515 68.485)"/></g><g class="jr" transform="translate(40.003 69.096)"><path class="dk" d="M655-40.939h6.667V-47H655Z" transform="translate(-656.515 45.485)"/></g><g class="js" transform="translate(10.001 60.308)"><path class="dk" d="M556-69.939h8.182V-76H556Z" transform="translate(-557.515 74.485)"/></g><g class="jt" transform="translate(4.546 67.278)"><path class="t" d="M538-49.06h19.4V-53H538Z" transform="translate(-539.515 51.485)"/></g><g class="ju" transform="translate(4.849 67.278)"><path class="t" d="M539-35.726h3.94V-53H539Z" transform="translate(-540.515 51.485)"/></g><g class="jv" transform="translate(9.698 5.758)"><path class="ac" d="M555-232.665h83.946V-256H555Z" transform="translate(-556.515 254.485)"/></g><g class="jw" transform="translate(55.762 0.303)"><path class="i" d="M707-250.968h13.94V-274H707Z" transform="translate(-708.515 272.485)"/></g><g class="jx" transform="translate(55.762 2.121)"><path class="t" d="M707-246.786h6.97V-268H707Z" transform="translate(-708.515 266.485)"/></g><g class="jy" transform="translate(56.065 2.727)"><path class="t" d="M708-262.06h13.334V-266H708Z" transform="translate(-709.515 264.485)"/></g><g class="jz" transform="translate(13.638 27.881)"><path class="bj" d="M568-132.087h62.429V-183H568Z" transform="translate(-569.515 181.485)"/></g><g class="ka" transform="translate(71.824 8.182)"><path class="bj" d="M760-177.085h37.882V-248H760Z" transform="translate(-761.515 246.485)"/></g><g class="kb" transform="translate(9.395 5.152)"><path class="bj" d="M554-231.634H657.038V-258H554Z" transform="translate(-555.515 256.485)"/></g><g class="kc" transform="translate(43.337 75.46)"><path class="bj" d="M666-18.424h9.092V-26H666Z" transform="translate(-667.515 24.485)"/></g><g class="kd" transform="translate(71.824 75.46)"><path class="bj" d="M760-18.424h38.488V-26H760Z" transform="translate(-761.515 24.485)"/></g><g class="ke" transform="translate(84.249 75.46)"><path class="bj" d="M801-20.545h19.092V-26H801Z" transform="translate(-802.515 24.485)"/></g><g class="kf" transform="translate(85.764 77.279)"><path class="bj" d="M806-14.242h19.4V-20H806Z" transform="translate(-807.515 18.485)"/></g><g class="kg" transform="translate(82.128 75.46)"><path class="bj" d="M794-18.424h7.576V-26H794Z" transform="translate(-795.515 24.485)"/></g><g class="kh" transform="translate(85.158 27.881)"><path class="bj" d="M804-161.483h16.668V-183H804Z" transform="translate(-805.515 181.485)"/></g><g class="ki" transform="translate(85.461 30.002)"><path class="bj" d="M805-156.6h14.85V-176H805Z" transform="translate(-806.515 174.485)"/></g><g class="kj" transform="translate(85.158 57.883)"><path class="bj" d="M804-62.483h16.365V-84H804Z" transform="translate(-805.515 82.485)"/></g><g class="kk" transform="translate(85.461 60.308)"><path class="bj" d="M805-56.908h14.244V-76H805Z" transform="translate(-806.515 74.485)"/></g><g class="kl" transform="translate(85.158 62.126)"><path class="bj" d="M804-53.029h11.819V-70H804Z" transform="translate(-805.515 68.485)"/></g><g class="km" transform="translate(71.824 45.761)"><path class="bj" d="M760-114h42.731v-10H760Z" transform="translate(-761.515 122.485)"/></g><g class="kn" transform="translate(72.127 46.064)"><path class="bj" d="M761-113.3h9.092V-123H761Z" transform="translate(-762.515 121.485)"/></g><g class="ko" transform="translate(20.911 36.063)"><path class="bj" d="M592-140.544h20.911V-156H592Z" transform="translate(-593.515 154.485)"/></g><g class="kp" transform="translate(47.276 36.063)"><path class="bj" d="M679-140.544h20.911V-156H679Z" transform="translate(-680.515 154.485)"/></g><g class="kq" transform="translate(48.792 54.853)"><path class="bj" d="M684-65.816h19.092V-94H684Z" transform="translate(-685.515 92.485)"/></g><g class="kr" transform="translate(43.337 79.4)"><path class="bj" d="M666-7.545h35.457V-13H666Z" transform="translate(-667.515 11.485)"/></g><g class="ks" transform="translate(75.764 79.4)"><path class="bj" d="M773-7.545h38.185V-13H773Z" transform="translate(-774.515 11.485)"/></g><g class="kt" transform="translate(24.548 56.065)"><path class="bj" d="M604-66.968h22.426V-90H604Z" transform="translate(-605.515 88.485)"/></g><g class="ku" transform="translate(0.606 56.065)"><path class="bj" d="M525-61.21h27.578V-90H525Z" transform="translate(-526.515 88.485)"/></g><g class="kv" transform="translate(24.548 75.46)"><path class="bj" d="M604-18.424h22.426V-26H604Z" transform="translate(-605.515 24.485)"/></g><g class="kw" transform="translate(24.548 78.794)"><path class="bj" d="M604-8.939h22.426V-15H604Z" transform="translate(-605.515 13.485)"/></g><g class="kx" transform="translate(0.606 75.46)"><path class="bj" d="M525-18.424h7.317V-26H525Z" transform="translate(-526.515 24.485)"/></g><g class="ky" transform="translate(20.911 75.46)"><path class="bj" d="M592-18.424h7.576V-26H592Z" transform="translate(-593.515 24.485)"/></g><g class="kz" transform="translate(0.606 78.794)"><path class="bj" d="M525-8.939h27.578V-15H525Z" transform="translate(-526.515 13.485)"/></g><g class="la" transform="translate(25.76 54.55)"><path class="bj" d="M608-89.848h21.517V-95H608Z" transform="translate(-609.515 93.485)"/></g><g class="lb" transform="translate(0 54.55)"><path class="bj" d="M523-89.848h29.4V-95H523Z" transform="translate(-524.515 93.485)"/></g><g class="lc" transform="translate(55.459 1.818)"><path class="bj" d="M706-247.18h7.576V-269H706Z" transform="translate(-707.515 267.485)"/></g><g class="ld" transform="translate(59.399 1.818)"><path class="bj" d="M719-247.18h10.3V-269H719Z" transform="translate(-720.515 267.485)"/></g><g class="le" transform="translate(55.459)"><path class="bj" d="M706-268.939h7.879V-275H706Z" transform="translate(-707.515 273.485)"/></g><g class="lf" transform="translate(59.702)"><path class="bj" d="M720-268.939h10.3V-275H720Z" transform="translate(-721.515 273.485)"/></g><g class="lg" transform="translate(4.546 66.975)"><path class="bj" d="M538-36.12h19.7V-54H538Z" transform="translate(-539.515 52.485)"/></g><g class="lh" transform="translate(28.184 61.52)"><path class="bj" d="M616-63.818h15.153V-72H616Z" transform="translate(-617.515 70.485)"/></g><g class="li" transform="translate(10.001 5.455)"><path class="bj" d="M556-233.059h84.249V-257H556Z" transform="translate(-557.515 255.485)"/></g><g class="lj" transform="translate(12.425 67.278)"><path class="bj" d="M564-35.726h3.94V-53H564Z" transform="translate(-565.515 51.485)"/></g><g class="lk" transform="translate(4.546 71.521)"><path class="bj" d="M538-35.06h11.213V-39H538Z" transform="translate(-539.515 37.485)"/></g><g class="ll" transform="translate(4.546 76.673)"><path class="bj" d="M538-18.06h11.213V-22H538Z" transform="translate(-539.515 20.485)"/></g><g class="lm" transform="translate(29.396 36.366)"><path class="bj" d="M620-140.453h3.94V-155H620Z" transform="translate(-621.515 153.485)"/></g><g class="ln" transform="translate(21.517 41.821)"><path class="bj" d="M594-133.06h20V-137H594Z" transform="translate(-595.515 135.485)"/></g><g class="lo" transform="translate(56.065 36.366)"><path class="bj" d="M708-140.453h3.94V-155H708Z" transform="translate(-709.515 153.485)"/></g><g class="lp" transform="translate(47.58 41.821)"><path class="bj" d="M680-133.06h20.3V-137H680Z" transform="translate(-681.515 135.485)"/></g><g class="lq" transform="translate(56.671 55.156)"><path class="bj" d="M710-65.119h3.94V-93H710Z" transform="translate(-711.515 91.485)"/></g><g class="lr" transform="translate(49.095 61.52)"><path class="bj" d="M685-68.06h18.486V-72H685Z" transform="translate(-686.515 70.485)"/></g></g></svg>