<?xml version="1.0" encoding="UTF-8"?>
<svg width="6px" height="10px" viewBox="0 0 6 10" version="1.1" xmlns="http://www.w3.org/2000/svg" xmlns:xlink="http://www.w3.org/1999/xlink">
    <title>Fill 1</title>
    <g id="12.28" stroke="none" stroke-width="1" fill="none" fill-rule="evenodd">
        <g id="Brands-HOVER" transform="translate(-309.000000, -2641.000000)" fill="#142651">
            <g id="Group-Copy-9" transform="translate(120.000000, 2381.000000)">
                <g id="Group-26" transform="translate(0.000000, 237.000000)">
                    <path d="M187,26.0560626 C187,25.7848761 187.105235,25.5241199 187.305183,25.315515 C187.715601,24.9087353 188.389108,24.9087353 188.799526,25.315515 L191.998685,28.4758801 L195.197843,25.3050847 C195.608261,24.8983051 196.281768,24.8983051 196.692186,25.3050847 C197.102605,25.7118644 197.102605,26.3794003 196.692186,26.7861799 L192.745856,30.6975228 C192.545909,30.8956975 192.28282,31 191.998685,31 C191.714549,31 191.45146,30.8852673 191.251513,30.6975228 L187.305183,26.7966102 C187.105235,26.5880052 187,26.3168188 187,26.0560626" id="Fill-1" transform="translate(192.000000, 28.000000) rotate(-90.000000) translate(-192.000000, -28.000000) "></path>
                </g>
            </g>
        </g>
    </g>
</svg>