<?xml version="1.0" encoding="UTF-8"?>
<svg width="28px" height="28px" viewBox="0 0 28 28" version="1.1" xmlns="http://www.w3.org/2000/svg" xmlns:xlink="http://www.w3.org/1999/xlink">
    <title>table</title>
    <g id="Page-1" stroke="none" stroke-width="1" fill="none" fill-rule="evenodd">
        <g id="rpm-wo" transform="translate(-741.000000, -2076.000000)" fill="#002F65" fill-rule="nonzero">
            <g id="Group-3" transform="translate(500.000000, 2000.000000)">
                <g id="table" transform="translate(241.000000, 76.000000)">
                    <path d="M25.1098779,0 L2.8590455,0 C1.27413984,0 0,1.27413984 0,2.8590455 L0,25.1409545 C0,26.7258602 1.27413984,28 2.8590455,28 L25.1409545,28 C26.7258602,28 28,26.7258602 28,25.1409545 L28,2.8590455 C27.9689234,1.27413984 26.6947836,0 25.1098779,0 Z M2.8590455,1.64705882 L25.1409545,1.64705882 C25.7935627,1.64705882 26.3529412,2.17536071 26.3529412,2.8590455 L26.3529412,5.68701443 L1.64705882,5.68701443 L1.64705882,2.8590455 C1.64705882,2.17536071 2.17536071,1.64705882 2.8590455,1.64705882 Z M10.2552719,19.4850166 L10.2552719,14.1709212 L17.4650388,14.1709212 L17.4650388,19.4850166 L10.2552719,19.4850166 Z M17.4650388,21.1320755 L17.4650388,26.3529412 L10.2552719,26.3529412 L10.2552719,21.1320755 L17.4650388,21.1320755 Z M17.4650388,7.30299667 L17.4650388,12.554939 L10.2552719,12.554939 L10.2552719,7.30299667 L17.4650388,7.30299667 Z M8.6082131,12.554939 L1.64705882,12.554939 L1.64705882,7.30299667 L8.6082131,7.30299667 L8.6082131,12.554939 Z M8.6082131,14.1709212 L8.6082131,19.4850166 L1.64705882,19.4850166 L1.64705882,14.1709212 L8.6082131,14.1709212 Z M19.0810211,14.1709212 L26.3218646,14.1709212 L26.3218646,19.4850166 L19.0810211,19.4850166 L19.0810211,14.1709212 Z M19.0810211,12.554939 L19.0810211,7.30299667 L26.3218646,7.30299667 L26.3218646,12.554939 L19.0810211,12.554939 Z M1.64705882,25.1098779 L1.64705882,21.1320755 L8.6082131,21.1320755 L8.6082131,26.3529412 L2.8590455,26.3529412 C2.17536071,26.3218646 1.64705882,25.7935627 1.64705882,25.1098779 Z M25.1098779,26.3218646 L19.0810211,26.3218646 L19.0810211,21.1320755 L26.3218646,21.1320755 L26.3218646,25.1409545 C26.3218646,25.7935627 25.7935627,26.3218646 25.1098779,26.3218646 Z" id="Shape"></path>
                </g>
            </g>
        </g>
    </g>
</svg>