<?xml version="1.0" encoding="UTF-8"?>
<svg width="36px" height="28px" viewBox="0 0 36 28" version="1.1" xmlns="http://www.w3.org/2000/svg" xmlns:xlink="http://www.w3.org/1999/xlink">
    <title>bedrooms</title>
    <g id="Page-1" stroke="none" stroke-width="1" fill="none" fill-rule="evenodd">
        <g id="rpm-wo" transform="translate(-500.000000, -2082.000000)" fill="#002F65" fill-rule="nonzero">
            <g id="Group-3" transform="translate(500.000000, 2000.000000)">
                <g id="bedrooms" transform="translate(0.000000, 82.000000)">
                    <path d="M35.4,10.1276596 L20.4,10.1276596 L20.4,8.93617021 C20.4,8.60714951 20.1313708,8.34042553 19.8,8.34042553 L14.4,8.34042553 C14.0686292,8.34042553 13.8,8.60714951 13.8,8.93617021 L13.8,10.1276596 L12.3276,10.1276596 C12.5038289,9.80785382 12.5974228,9.44964285 12.6,9.08510638 L12.6,8.78723404 C12.5983474,7.55408674 11.5919555,6.55483241 10.35,6.55319149 L6.45,6.55319149 C5.2080445,6.55483241 4.20165264,7.55408674 4.2,8.78723404 L4.2,9.08510638 C4.20257717,9.44964285 4.29617111,9.80785382 4.4724,10.1276596 L3.6,10.1276596 L3.6,0.595744681 C3.6,0.266723979 3.33137085,0 3,0 L0.6,0 C0.26862915,0 0,0.266723979 0,0.595744681 L0,27.4042553 C0,27.733276 0.26862915,28 0.6,28 L3,28 C3.33137085,28 3.6,27.733276 3.6,27.4042553 L3.6,20.2553191 L13.8,20.2553191 L13.8,22.0425532 C13.8,22.3715739 14.0686292,22.6382979 14.4,22.6382979 L19.8,22.6382979 C20.1313708,22.6382979 20.4,22.3715739 20.4,22.0425532 L20.4,21.4468085 L32.4,21.4468085 L32.4,27.4042553 C32.4,27.733276 32.6686292,28 33,28 L35.4,28 C35.7313708,28 36,27.733276 36,27.4042553 L36,10.7234043 C36,10.3943836 35.7313708,10.1276596 35.4,10.1276596 Z M5.4,9.08510638 L5.4,8.78723404 C5.4006613,8.21172001 5.87037515,7.74533746 6.45,7.74468085 L10.35,7.74468085 C10.9296248,7.74533746 11.3993387,8.21172001 11.4,8.78723404 L11.4,9.08510638 C11.3993387,9.66062042 10.9296248,10.127003 10.35,10.1276596 L6.45,10.1276596 C5.87037515,10.127003 5.4006613,9.66062042 5.4,9.08510638 Z M6.45,11.3191489 L13.8,11.3191489 L13.8,15.4893617 L3.6,15.4893617 L3.6,11.3191489 L6.45,11.3191489 Z M2.4,26.8085106 L1.2,26.8085106 L1.2,1.19148936 L2.4,1.19148936 L2.4,26.8085106 Z M3.6,19.0638298 L3.6,16.6808511 L13.8,16.6808511 L13.8,19.0638298 L3.6,19.0638298 Z M19.2,21.4468085 L15,21.4468085 L15,9.53191489 L19.2,9.53191489 L19.2,21.4468085 Z M20.4,11.3191489 L34.8,11.3191489 L34.8,20.2553191 L20.4,20.2553191 L20.4,11.3191489 Z M34.8,26.8085106 L33.6,26.8085106 L33.6,21.4468085 L34.8,21.4468085 L34.8,26.8085106 Z" id="Shape"></path>
                </g>
            </g>
        </g>
    </g>
</svg>