<svg xmlns="http://www.w3.org/2000/svg" width="32" height="32" viewBox="0 0 32 32"><defs><style>.a{fill:#002f65;}</style></defs><path class="a" d="M16,0A16,16,0,1,0,32,16,16.018,16.018,0,0,0,16,0Zm0,30.667A14.667,14.667,0,1,1,30.667,16,14.683,14.683,0,0,1,16,30.667Z"/><path class="a" d="M162.472,149.528a.666.666,0,0,0-.943,0L156,155.057l-5.529-5.529a.667.667,0,0,0-.943.943L155.058,156l-5.529,5.529a.667.667,0,1,0,.943.943L156,156.942l5.529,5.529a.667.667,0,1,0,.943-.943L156.943,156l5.529-5.529A.666.666,0,0,0,162.472,149.528Z" transform="translate(-140 -139.999)"/></svg>