<?xml version="1.0" encoding="UTF-8"?>
<svg width="36px" height="37px" viewBox="0 0 36 37" version="1.1" xmlns="http://www.w3.org/2000/svg" xmlns:xlink="http://www.w3.org/1999/xlink">
    <title>compare</title>
    <g id="Page-1" stroke="none" stroke-width="1" fill="none" fill-rule="evenodd">
        <g id="rpm-wo" transform="translate(-740.000000, -2288.000000)">
            <g id="Group-3" transform="translate(500.000000, 2000.000000)">
                <g id="compare" transform="translate(240.000000, 288.000000)">
                    <g id="noun_Home_3074840" fill="#002F65" fill-rule="nonzero">
                        <path d="M17.0513019,6.39317016 L10.1079224,0.473003043 C9.3633241,-0.157667681 8.32088643,-0.157667681 7.59490305,0.473003043 L0.632908587,6.39317016 C0.223379501,6.73902184 0,7.26797148 0,7.81726534 L0,8.57000136 C0,9.3430816 0.577063712,9.97375233 1.28443213,9.97375233 L1.93595568,9.97375233 L1.93595568,15.9142637 C1.93595568,16.8907861 2.66193906,17.6842105 3.55545706,17.6842105 L6.99922438,17.6842105 C7.3901385,17.6842105 7.72520776,17.3383588 7.72520776,16.8907861 L7.72520776,12.008174 L9.95900277,12.008174 L9.95900277,16.8907861 C9.95900277,17.3180146 10.2754571,17.6842105 10.6849861,17.6842105 L14.1287535,17.6842105 C15.0222715,17.6842105 15.7482548,16.8907861 15.7482548,15.9142637 L15.7482548,9.97375233 L16.3997784,9.97375233 C17.1071468,9.97375233 17.6842105,9.3430816 17.6842105,8.57000136 L17.6842105,7.81726534 C17.6842105,7.26797148 17.4422161,6.73902184 17.0513019,6.39317016 Z M16.2508587,8.40724763 L15.0408864,8.40724763 C14.6499723,8.40724763 14.314903,8.75309931 14.314903,9.20067209 L14.314903,15.9346079 C14.314903,16.0566732 14.2218283,16.13805 14.1287535,16.13805 L11.3923546,16.13805 L11.3923546,11.255438 C11.3923546,10.8282094 11.0759003,10.4620135 10.6663712,10.4620135 L7.01783934,10.4620135 C6.62692521,10.4620135 6.29185596,10.8078652 6.29185596,11.255438 L6.29185596,16.13805 L3.55545706,16.13805 C3.44376731,16.13805 3.36930748,16.036329 3.36930748,15.9346079 L3.36930748,9.20067209 C3.36930748,8.77344353 3.05285319,8.40724763 2.6433241,8.40724763 L1.4333518,8.40724763 L1.4333518,7.81726534 C1.4333518,7.73588847 1.47058172,7.67485582 1.52642659,7.63416739 L8.46980609,1.71400027 C8.6931856,1.53090232 9.00963989,1.53090232 9.23301939,1.71400027 L16.1577839,7.63416739 C16.2136288,7.67485582 16.2508587,7.75623269 16.2508587,7.81726534 L16.2508587,8.40724763 Z" id="Shape"></path>
                    </g>
                    <g id="noun_Home_3074840-Copy" transform="translate(17.684211, 18.947368)" fill="#002F65" fill-rule="nonzero">
                        <path d="M17.0513019,6.39317016 L10.1079224,0.473003043 C9.3633241,-0.157667681 8.32088643,-0.157667681 7.59490305,0.473003043 L0.632908587,6.39317016 C0.223379501,6.73902184 0,7.26797148 0,7.81726534 L0,8.57000136 C0,9.3430816 0.577063712,9.97375233 1.28443213,9.97375233 L1.93595568,9.97375233 L1.93595568,15.9142637 C1.93595568,16.8907861 2.66193906,17.6842105 3.55545706,17.6842105 L6.99922438,17.6842105 C7.3901385,17.6842105 7.72520776,17.3383588 7.72520776,16.8907861 L7.72520776,12.008174 L9.95900277,12.008174 L9.95900277,16.8907861 C9.95900277,17.3180146 10.2754571,17.6842105 10.6849861,17.6842105 L14.1287535,17.6842105 C15.0222715,17.6842105 15.7482548,16.8907861 15.7482548,15.9142637 L15.7482548,9.97375233 L16.3997784,9.97375233 C17.1071468,9.97375233 17.6842105,9.3430816 17.6842105,8.57000136 L17.6842105,7.81726534 C17.6842105,7.26797148 17.4422161,6.73902184 17.0513019,6.39317016 Z M16.2508587,8.40724763 L15.0408864,8.40724763 C14.6499723,8.40724763 14.314903,8.75309931 14.314903,9.20067209 L14.314903,15.9346079 C14.314903,16.0566732 14.2218283,16.13805 14.1287535,16.13805 L11.3923546,16.13805 L11.3923546,11.255438 C11.3923546,10.8282094 11.0759003,10.4620135 10.6663712,10.4620135 L7.01783934,10.4620135 C6.62692521,10.4620135 6.29185596,10.8078652 6.29185596,11.255438 L6.29185596,16.13805 L3.55545706,16.13805 C3.44376731,16.13805 3.36930748,16.036329 3.36930748,15.9346079 L3.36930748,9.20067209 C3.36930748,8.77344353 3.05285319,8.40724763 2.6433241,8.40724763 L1.4333518,8.40724763 L1.4333518,7.81726534 C1.4333518,7.73588847 1.47058172,7.67485582 1.52642659,7.63416739 L8.46980609,1.71400027 C8.6931856,1.53090232 9.00963989,1.53090232 9.23301939,1.71400027 L16.1577839,7.63416739 C16.2136288,7.67485582 16.2508587,7.75623269 16.2508587,7.81726534 L16.2508587,8.40724763 Z" id="Shape"></path>
                    </g>
                    <line x1="9.15789474" y1="29.3684211" x2="26.8421053" y2="9.15789474" id="Line-2" stroke="#002F65" stroke-width="1.5" stroke-linecap="round" transform="translate(18.000000, 19.263158) rotate(6.814075) translate(-18.000000, -19.263158) "></line>
                </g>
            </g>
        </g>
    </g>
</svg>