<?xml version="1.0" encoding="utf-8"?>
<svg version="1.1" xmlns:xlink="http://www.w3.org/1999/xlink" width="435px" height="287px" xmlns="http://www.w3.org/2000/svg">
  <g>
    <path d="M 0 0  L 435 0  L 435 287  L 0 287  L 0 0  " fill-rule="nonzero" fill="#cccccc" stroke="none" />
    <path d="M 20 20  L 415 20  L 415 267  L 20 267  L 20 20  " fill-rule="nonzero" fill="#ffffff" stroke="none" />
    <path d="M 247.72500000000002 86.1  C 235.67100000000002 86.1  226.20000000000002 76.62899999999999  226.20000000000002 64.57499999999999  C 226.20000000000002 52.520999999999994  235.67100000000002 43.05  247.72500000000002 43.05  C 259.779 43.05  269.25 52.520999999999994  269.25 64.57499999999999  C 269.25 76.62899999999999  259.779 86.1  247.72500000000002 86.1  " fill-rule="nonzero" fill="#cccccc" stroke="none" />
    <path d="M 27 260  L 27 131.85  L 122.25 73.6  L 255.6 167.7641379310345  L 331.8 108.54999999999998  L 408 167.7641379310345  L 408 260  L 27 260  " fill-rule="nonzero" fill="#169bd5" stroke="none" />
  </g>
</svg>