<?xml version="1.0" encoding="UTF-8"?>
<svg width="35px" height="28px" viewBox="0 0 35 28" version="1.1" xmlns="http://www.w3.org/2000/svg" xmlns:xlink="http://www.w3.org/1999/xlink">
    <title>graph</title>
    <g id="Page-1" stroke="none" stroke-width="1" fill="none" fill-rule="evenodd">
        <g id="rpm-wo" transform="translate(-740.000000, -2148.000000)" fill="#002F65" fill-rule="nonzero">
            <g id="Group-3" transform="translate(500.000000, 2000.000000)">
                <g id="graph" transform="translate(240.000000, 148.000000)">
                    <path d="M0.865979387,0.00580656545 C0.36529877,0.0604282439 -0.010385618,0.485739153 0.000219024339,0.985672058 L0.000219024339,27.0350193 C0.000219024339,27.5678364 0.43557071,27.9999068 0.972272781,27.9999068 L34.0143335,27.9999068 C34.3648086,28.0047307 34.690803,27.8219264 34.867487,27.5213965 C35.044171,27.2208665 35.044171,26.8491721 34.867487,26.5486421 C34.690803,26.2481122 34.3648086,26.065308 34.0143335,26.0702287 L1.9440981,26.0702287 L1.9440981,0.985672058 C1.95012709,0.707816044 1.83518033,0.440872504 1.62869564,0.253205575 C1.42221094,0.0655386463 1.14424303,-0.0246246159 0.865979387,0.00580656545 Z M26.1486223,7.25681121 C25.801373,7.2729016 25.4891566,7.4717078 25.3296095,7.77832397 C25.1700623,8.08494015 25.1874301,8.45277106 25.375169,8.74322604 C25.562908,9.03368101 25.8924882,9.20262077 26.239731,9.18639249 L29.6411196,9.18639249 L20.879507,17.0554661 L14.2437622,11.3420966 C13.8717913,11.0218244 13.317335,11.0283002 12.9530567,11.3571714 L4.20662891,19.0754965 C3.94719387,19.3066428 3.83214923,19.6579185 3.90504901,19.9963362 C3.97794879,20.3347539 4.22765131,20.6085914 4.55962325,20.7141783 C4.8915952,20.8197652 5.25509943,20.740964 5.51251917,20.5076076 L13.6060019,13.362127 L20.2569314,19.0754965 C20.6289023,19.3957687 21.1833586,19.3892929 21.5476369,19.0604217 L31.0988575,10.4828299 L31.0988575,14.0103457 C31.0939009,14.3582838 31.2780381,14.6819185 31.5807593,14.8573235 C31.8834805,15.0327286 32.2578852,15.0327286 32.5606064,14.8573235 C32.8633276,14.6819185 33.0474647,14.3582838 33.0426058,14.0103457 L33.0426058,8.22160185 C33.0426058,7.68878476 32.6073849,7.25686448 32.0706828,7.25681121 L26.239731,7.25681121 C26.2093781,7.25539731 26.1789752,7.25539731 26.1486223,7.25681121 L26.1486223,7.25681121 Z" id="Shape"></path>
                </g>
            </g>
        </g>
    </g>
</svg>