<svg xmlns="http://www.w3.org/2000/svg" xmlns:xlink="http://www.w3.org/1999/xlink" width="269.016" height="182.454" viewBox="0 0 269.016 182.454"><defs><style>.a,.b,.eb{fill:none;}.a,.c{clip-rule:evenodd;}.c,.r{fill:#c1e1ed;}.d{clip-path:url(#a);}.e{clip-path:url(#b);}.f{fill:#e1f2f7;}.g{clip-path:url(#c);}.h{clip-path:url(#d);}.i{fill:#fffefe;}.j{clip-path:url(#e);}.k{fill:#c0e1ec;}.l{clip-path:url(#g);}.m{clip-path:url(#i);}.n{clip-path:url(#k);}.o{clip-path:url(#m);}.p{clip-path:url(#o);}.q{clip-path:url(#q);}.s{clip-path:url(#r);}.t{clip-path:url(#s);}.u{clip-path:url(#u);}.v{fill:#53b0cf;}.w{clip-path:url(#w);}.x{clip-path:url(#y);}.y{clip-path:url(#aa);}.z{fill:#15182a;}.aa{clip-path:url(#ac);}.ab{clip-path:url(#ae);}.ac{clip-path:url(#ag);}.ad{clip-path:url(#ai);}.ae{clip-path:url(#ak);}.af{clip-path:url(#am);}.ag{clip-path:url(#ao);}.ah{clip-path:url(#aq);}.ai{fill:#84cce7;}.aj{clip-path:url(#ar);}.ak{clip-path:url(#as);}.al{clip-path:url(#at);}.am{clip-path:url(#au);}.an{fill:#301828;}.ao{clip-path:url(#av);}.ap{clip-path:url(#aw);}.aq{clip-path:url(#ax);}.ar{clip-path:url(#ay);}.as{clip-path:url(#az);}.at{clip-path:url(#ba);}.au{clip-path:url(#bb);}.av{clip-path:url(#bc);}.aw{clip-path:url(#bd);}.ax{clip-path:url(#be);}.ay{clip-path:url(#bf);}.az{clip-path:url(#bg);}.ba{fill:#71b1ca;}.bb{clip-path:url(#bh);}.bc{clip-path:url(#bi);}.bd{clip-path:url(#bj);}.be{clip-path:url(#bk);}.bf{fill:#7ec07e;}.bg{clip-path:url(#bl);}.bh{clip-path:url(#bm);}.bi{clip-path:url(#bn);}.bj{clip-path:url(#bo);}.bk{clip-path:url(#bp);}.bl{clip-path:url(#bq);}.bm{clip-path:url(#br);}.bn{clip-path:url(#bs);}.bo{clip-path:url(#bt);}.bp{clip-path:url(#bu);}.bq{clip-path:url(#bv);}.br{clip-path:url(#bw);}.bs{fill:#64a964;}.bt{clip-path:url(#bx);}.bu{clip-path:url(#by);}.bv{clip-path:url(#bz);}.bw{clip-path:url(#ca);}.bx{clip-path:url(#cb);}.by{clip-path:url(#cc);}.bz{clip-path:url(#cd);}.ca{clip-path:url(#ce);}.cb{clip-path:url(#cf);}.cc{clip-path:url(#cg);}.cd{clip-path:url(#ch);}.ce{clip-path:url(#ci);}.cf{clip-path:url(#cj);}.cg{clip-path:url(#ck);}.ch{clip-path:url(#cl);}.ci{clip-path:url(#cm);}.cj{clip-path:url(#cn);}.ck{clip-path:url(#co);}.cl{clip-path:url(#cp);}.cm{clip-path:url(#cq);}.cn{clip-path:url(#cr);}.co{clip-path:url(#cs);}.cp{clip-path:url(#ct);}.cq{clip-path:url(#cu);}.cr{clip-path:url(#cv);}.cs{clip-path:url(#cw);}.ct{clip-path:url(#cx);}.cu{clip-path:url(#cy);}.cv{clip-path:url(#cz);}.cw{clip-path:url(#da);}.cx{fill:#71b2ca;}.cy{clip-path:url(#db);}.cz{clip-path:url(#dc);}.da{fill:#323331;}.db{clip-path:url(#dd);}.dc{clip-path:url(#de);}.dd{clip-path:url(#df);}.de{clip-path:url(#dg);}.df{clip-path:url(#dh);}.dg{clip-path:url(#di);}.dh{clip-path:url(#dj);}.di{clip-path:url(#dk);}.dj{clip-path:url(#dl);}.dk{clip-path:url(#dm);}.dl{clip-path:url(#dn);}.dm{clip-path:url(#do);}.dn{clip-path:url(#dp);}.do{clip-path:url(#dq);}.dp{clip-path:url(#dr);}.dq{clip-path:url(#ds);}.dr{clip-path:url(#dt);}.ds{clip-path:url(#du);}.dt{clip-path:url(#dv);}.du{clip-path:url(#dw);}.dv{clip-path:url(#dx);}.dw{clip-path:url(#dy);}.dx{fill:#333431;}.dy{clip-path:url(#dz);}.dz{clip-path:url(#ea);}.ea{clip-path:url(#eb);}.eb{stroke:#333431;stroke-width:2px;}.ec{clip-path:url(#ec);}.ed{clip-path:url(#ed);}.ee{clip-path:url(#ee);}.ef{clip-path:url(#ef);}.eg{clip-path:url(#eg);}.eh{clip-path:url(#eh);}.ei{clip-path:url(#ei);}.ej{clip-path:url(#ej);}.ek{clip-path:url(#ek);}</style><clipPath id="a"><path class="a" d="M281.016-87.994a117.512,117.512,0,0,1-.606,11.918,116.666,116.666,0,0,1-17.225,50.1c-.087.143-.176.284-.266.425H51.1q-1.1-1.74-2.138-3.521a117.821,117.821,0,0,1-7.576-15.475A116.32,116.32,0,0,1,33-87.994C33-154.271,88.521-208,157.009-208S281.016-154.271,281.016-87.994" transform="translate(-33 208)"/></clipPath><clipPath id="b"><path class="b" d="M-355,1047.867H953.214V-1079H-355Z" transform="translate(355 1079)"/></clipPath><clipPath id="c"><path class="a" d="M261.058-121A5.866,5.866,0,0,0,255-115.346h12.115A5.866,5.866,0,0,0,261.058-121" transform="translate(-255 121)"/></clipPath><clipPath id="d"><path class="b" d="M-355,869.962H808.077V-1079H-355Z" transform="translate(355 1079)"/></clipPath><clipPath id="e"><path class="a" d="M213.667-149.269a9.709,9.709,0,0,1,6.169-2.253,9.444,9.444,0,0,1,2.685.391c.034-.359.057-.721.057-1.09,0-5.952-4.427-10.778-9.887-10.778a9.8,9.8,0,0,0-8.69,5.632,13.156,13.156,0,0,1,9.667,8.1" transform="translate(-204 163)"/></clipPath><clipPath id="g"><path class="a" d="M188.49-135.038c-.113-.11-.225-.222-.333-.336-.064.114-.131.226-.2.336H176.963a5.986,5.986,0,0,1-.963-3.247,6.334,6.334,0,0,1,6.457-6.2,6.626,6.626,0,0,1,3.175.805A10.255,10.255,0,0,1,195.858-152a10.289,10.289,0,0,1,10.1,7.715,6.563,6.563,0,0,1,1.905.8,7.645,7.645,0,0,1,6.217-3.131,7.42,7.42,0,0,1,7.565,7.265c0,.03,0,.058,0,.088a4.118,4.118,0,0,1,2.035-.536,3.939,3.939,0,0,1,4.016,3.857,3.706,3.706,0,0,1-.115.9H188.49" transform="translate(-176 152)"/></clipPath><clipPath id="i"><path class="a" d="M159.1-186.885a4.753,4.753,0,0,0-3.3,1.345,6.842,6.842,0,0,0-5.883-3.46A7.1,7.1,0,0,0,143-181.731h21a5.034,5.034,0,0,0-4.9-5.154" transform="translate(-143 189)"/></clipPath><clipPath id="k"><path class="a" d="M117.846-142.692a6.816,6.816,0,0,0-6.681-5.807,6.64,6.64,0,0,0-1.637.2A9.122,9.122,0,0,0,101.12-154,9.222,9.222,0,0,0,92-144.679a9.538,9.538,0,0,0,.21,1.986h25.636" transform="translate(-92 154)"/></clipPath><clipPath id="m"><path class="a" d="M148.827-154.769l-.433-.678c-.016-.024-.033-.054-.054-.089A3.54,3.54,0,0,0,146-157.213l.3-.787a4.751,4.751,0,0,1,2.522,1.521A4.892,4.892,0,0,1,151.355-158l.3.787a3.667,3.667,0,0,0-2.084,1.282l-.743,1.162" transform="translate(-146 158)"/></clipPath><clipPath id="o"><path class="a" d="M136.012-158.577l-.393-.54c-.022-.03-.045-.063-.07-.1a2.233,2.233,0,0,0-1.549-1l.248-.788a3.418,3.418,0,0,1,1.773.938,3.377,3.377,0,0,1,1.77-.938l.248.788a2.284,2.284,0,0,0-1.559,1.006l-.467.63" transform="translate(-134 161)"/></clipPath><clipPath id="q"><path class="c" d="M89.652-39.928,80.606-65.5l3.858,1.031L72.5-102,58.271-63.2l5.123-2.3L54.347-39.928l5.462-2.447L48-9,72.5-21,96.034-11,84.19-42.375Z"/></clipPath><clipPath id="r"><path class="c" d="M72,0h1V-20.295H72Z"/></clipPath><clipPath id="s"><path class="a" d="M24.246-67.308h-4.8L17-75.478V-77h9.692v1.522l-2.447,8.17" transform="translate(-17 77)"/></clipPath><clipPath id="u"><path class="a" d="M17-74.385h9.692V-76H17Z" transform="translate(-17 76)"/></clipPath><clipPath id="w"><path class="a" d="M20-5.154h6.462V-10H20Z" transform="translate(-20 10)"/></clipPath><clipPath id="y"><path class="a" d="M29.731-.769H16V-2.49A1.525,1.525,0,0,1,17.54-4h10.65a1.525,1.525,0,0,1,1.54,1.51V-.769" transform="translate(-16 4)"/></clipPath><clipPath id="aa"><path class="a" d="M23-23.231h.808V-62H23Z" transform="translate(-23 62)"/></clipPath><clipPath id="ac"><path class="a" d="M24.846-13.385h-.918v-.679a.191.191,0,0,0-.206-.172h-2.6a.191.191,0,0,0-.206.172v.679H20v-.679A1.044,1.044,0,0,1,21.123-15h2.6a1.044,1.044,0,0,1,1.123.937v.679" transform="translate(-20 15)"/></clipPath><clipPath id="ae"><path class="a" d="M26.269-5.346h-.853V-9.5a.487.487,0,0,0-.448-.518H20.3a.487.487,0,0,0-.448.518v4.15H19V-9.5A1.415,1.415,0,0,1,20.3-11h4.668a1.415,1.415,0,0,1,1.3,1.5v4.15" transform="translate(-19 11)"/></clipPath><clipPath id="ag"><path class="a" d="M29.538-1.769H28.7V-3.584a.6.6,0,0,0-.6-.589H16.442a.6.6,0,0,0-.6.589v1.671H15V-3.584A1.431,1.431,0,0,1,16.442-5H28.1a1.431,1.431,0,0,1,1.442,1.416v1.815" transform="translate(-15 5)"/></clipPath><clipPath id="ai"><path class="a" d="M19.169-68.179h4.276l2.136-6.92.031-1.031H16.86V-75.1Zm4.909.871H18.551L16-74.954V-77H26.5l-.062,2.047-.018.057-2.342,7.588Z" transform="translate(-16 77)"/></clipPath><clipPath id="ak"><path class="a" d="M21-47.192h3.231V-48H21Z" transform="translate(-21 48)"/></clipPath><clipPath id="am"><path class="a" d="M21-61.192h3.231V-62H21Z" transform="translate(-21 62)"/></clipPath><clipPath id="ao"><path class="a" d="M18-65.192h8.077V-66H18Z" transform="translate(-18 66)"/></clipPath><clipPath id="aq"><path class="a" d="M89.652-39.928,80.606-65.5l3.858,1.031L72.5-102,58.271-63.2l5.123-2.3L54.347-39.928l5.462-2.447L48-9,72.5-21,96.034-11,84.19-42.375Z"/></clipPath><clipPath id="ar"><path class="a" d="M72-102,84-65l-8.973-3.429L72-102"/></clipPath><clipPath id="as"><path class="a" d="M78-77,92-38,81.206-42.768,78-77"/></clipPath><clipPath id="at"><path class="a" d="M84.272-49,94-10,83-16.577,80-49Z"/></clipPath><clipPath id="au"><path class="a" d="M132.655-93,132-93.609,133.345-96l.655.609L132.655-93"/></clipPath><clipPath id="av"><path class="a" d="M165.655-93,165-93.609,166.345-96l.655.609L165.655-93"/></clipPath><clipPath id="aw"><path class="a" d="M180-65l-.144,53H84V-65h96"/></clipPath><clipPath id="ax"><path class="a" d="M212.963-102,181.715-64.944h-1.7L180-12h61.986L242-64.963,212.963-102"/></clipPath><clipPath id="ay"><path class="a" d="M112.066-106,78.693-66.72,81-64.646,181.906-64l31.251-37.378L242.2-64.019l3.8.013L213.227-106h-37.4l-60.132,0Z"/></clipPath><clipPath id="az"><path class="a" d="M84-5h96v-7H84Z"/></clipPath><clipPath id="ba"><path class="a" d="M180-5h62v-7H180Z"/></clipPath><clipPath id="bb"><path class="a" d="M158-1h91V-5H158Z"/></clipPath><clipPath id="bc"><path class="a" d="M77-1H190V-5H77Z"/></clipPath><clipPath id="bd"><path class="a" d="M212.5-80a6.543,6.543,0,0,0-5.5,6.5,7.041,7.041,0,0,0,6.5,6.877c3.777-.418,5.1-3.578,5.1-6.877s-1.485-6.023-4.6-6.5"/></clipPath><clipPath id="be"><path class="a" d="M210.509-68,219-75.759c-.1-.125-.2-.247-.307-.367a7.414,7.414,0,0,1-.94-.874l-8.88,8.126c.478.373.726,1.019,1.315,1.2"/></clipPath><clipPath id="bf"><path class="a" d="M218.989-72.188A6.953,6.953,0,0,1,219-74l-7,7h2.532l4.443-4.444a5.649,5.649,0,0,1,.013-.744"/></clipPath><clipPath id="bg"><path class="a" d="M214-80a6.726,6.726,0,0,1,4.6,6.5c0,3.036-2.95,5.741-5.6,6.5.229.066,1.462-.038,1.7,0a6.476,6.476,0,0,0,5.3-6.5,6.476,6.476,0,0,0-5.3-6.5C214.462-79.962,214.229-80.066,214-80Z"/></clipPath><clipPath id="bh"><path class="a" d="M90-21h62V-49H90Z"/></clipPath><clipPath id="bi"><path class="a" d="M199-11h16V-34H199Z"/></clipPath><clipPath id="bj"><path class="a" d="M195-42l12.957-16,15.153.5L210.679-42Z"/></clipPath><clipPath id="bk"><path class="a" d="M116-84h12V-96H116Z"/></clipPath><clipPath id="bl"><path class="a" d="M149-84h12V-96H149Z"/></clipPath><clipPath id="bm"><path class="a" d="M180-4H116l5.811-7H180v7"/></clipPath><clipPath id="bn"><path class="a" d="M190-1V-5H107.835L105-1h85"/></clipPath><clipPath id="bo"><path class="a" d="M176-12h4V-65h-4Z"/></clipPath><clipPath id="bp"><path class="a" d="M85-62h98v-2H85Z"/></clipPath><clipPath id="bq"><path class="a" d="M183.827-62,213.5-96.371l24.885,32.1H242l-28.5-36.747L181.715-64.249h-1.7L180-62Z"/></clipPath><clipPath id="br"><path class="a" d="M179.786-67H78l33.851-39L213.5-106,181-66.623"/></clipPath><clipPath id="bs"><path class="a" d="M122.921-104.882,113-94.765V-80h19.279L144-93.46H133Z"/></clipPath><clipPath id="bt"><path class="a" d="M139-111.49H121.535L107.507-95.334l1.524,1.315h4.128v-1.315l9.585-10.317L132.648-94h13.137l.214-9.362Z"/></clipPath><clipPath id="bu"><path class="a" d="M170.644-112l-17.555.506L139.5-96l1.532,1.981h4.126v-1.315l9.74-10.248L165-94l17.118.223L184.083-96Z"/></clipPath><clipPath id="bv"><path class="a" d="M155.124-105,146-94.765V-80h19.279L177-93.46l-11.635.019Z"/></clipPath><clipPath id="bw"><path class="a" d="M144-94,133-81V-93.981h2.04L144-94"/></clipPath><clipPath id="bx"><path class="a" d="M117-84h11V-95H117Z"/></clipPath><clipPath id="by"><path class="a" d="M149-84h12V-95H149Z"/></clipPath><clipPath id="bz"><path class="a" d="M177-93.981,165-81V-93.981h12Z"/></clipPath><clipPath id="ca"><path class="a" d="M116-83h2V-95h-2Z"/></clipPath><clipPath id="cb"><path class="a" d="M116-94h12v-1H116Z"/></clipPath><clipPath id="cc"><path class="a" d="M149-83h2V-95h-2Z"/></clipPath><clipPath id="cd"><path class="a" d="M149-94h12v-1H149Z"/></clipPath><clipPath id="ce"><path class="a" d="M140.168-96h-5.62l-13.186-15.128L138.691-112,146-103.18Z"/></clipPath><clipPath id="cf"><path class="a" d="M167.371-95.492,154.5-111h16.523l13.06,15.5Z"/></clipPath><clipPath id="cg"><path class="a" d="M107.487-21.525H111L139-49h-3.161Z"/></clipPath><clipPath id="ch"><path class="a" d="M92.734-21.525h3.857L125-49h-3.161Z"/></clipPath><clipPath id="ci"><path class="a" d="M89-22.622v1.1h.545L118-49h-3.118Z"/></clipPath><clipPath id="cj"><path class="a" d="M100-21.525h3.5L132-49h-3.161Z"/></clipPath><clipPath id="ck"><path class="a" d="M94.9-49,89-43.1V-40l9-9H94.9"/></clipPath><clipPath id="cl"><path class="a" d="M107.931-49,89-30.069V-27l22-22h-3.069"/></clipPath><clipPath id="cm"><path class="a" d="M101.823-49,89-36.176V-33l16-16h-3.177"/></clipPath><clipPath id="cn"><path class="a" d="M89-49v2l2-2H89"/></clipPath><clipPath id="co"><path class="a" d="M113.691-21.525h3.32L145-49h-3.161Z"/></clipPath><clipPath id="cp"><path class="a" d="M152-33,140-21h3.111L152-29.889V-33"/></clipPath><clipPath id="cq"><path class="a" d="M151-26l-5,5h2.9l2.1-2.1V-26"/></clipPath><clipPath id="cr"><path class="a" d="M151-46,126-21h3.079L151-42.921V-46"/></clipPath><clipPath id="cs"><path class="a" d="M133.5-21.525h3.622L152-35.827V-39Z"/></clipPath><clipPath id="ct"><path class="a" d="M119.687-21.525H123L151-49h-3.161Z"/></clipPath><clipPath id="cu"><path class="a" d="M198-5h7v-7h-7Z"/></clipPath><clipPath id="cv"><path class="a" d="M203-5h5V-8h-5Z"/></clipPath><clipPath id="cw"><path class="a" d="M133-80h13V-94H133Z"/></clipPath><clipPath id="cx"><path class="a" d="M90-47h62v-2H90Z"/></clipPath><clipPath id="cy"><path class="a" d="M90-21h2V-49H90Z"/></clipPath><clipPath id="cz"><path class="a" d="M42-1H25V-3.131A1.888,1.888,0,0,1,26.907-5H40.093A1.888,1.888,0,0,1,42-3.131V-1"/></clipPath><clipPath id="da"><path class="a" d="M199-31h16v-3H199Z"/></clipPath><clipPath id="db"><path class="a" d="M212-12h3V-34h-3Z"/></clipPath><clipPath id="dc"><path class="a" d="M48-9,59.647-42.2,54.26-39.766,63.182-65.2l-5.053,2.284L72.543-104,83.2-71.637l-.946.316L72.512-100.9,59.845-64.792,64.9-67.075,55.976-41.642l5.387-2.434-11.647,33.2L72.527-21.186,85-15.549l-.408.916L72.527-20.085,48-9"/></clipPath><clipPath id="dd"><path class="a" d="M72,0h1V-20.295H72Z"/></clipPath><clipPath id="de"><path class="a" d="M143.075-107H149v1h-5Z"/></clipPath><clipPath id="df"><path class="a" d="M85.007-12.009H179.85l.141-51.982H85.007ZM180.854-11H84V-65h97l-.146,54Z"/></clipPath><clipPath id="dg"><path class="a" d="M181.008-12h60.97l.014-52.112-28.543-36.291L182.454-63.769H181.02Zm61.978,1H180l.012-53.773h1.974L213.477-102,243-64.463,242.986-11Z"/></clipPath><clipPath id="dh"><path class="a" d="M80.73-64,78-66.764l.305-.357L112.375-107h5.12l-1.278,1.016h-3.383L79.37-66.814l1.775,1.8H181.912l31.365-37.66,29.146,37.642,2.5.009-31.84-40.957h-37L175.045-107h38.529L247-64l-5.067-.017-28.685-37.046L182.378-64Z"/></clipPath><clipPath id="di"><path class="a" d="M181-4.975h61v-6.05H181ZM180-4h63v-8H180Z"/></clipPath><clipPath id="dj"><path class="a" d="M206.006-8.019h19.988v-2.963H206.006ZM205-7h22v-5H205Z"/></clipPath><clipPath id="dk"><path class="a" d="M209.006-4.937h19.988V-7.063H209.006ZM208-4h22V-8H208Z"/></clipPath><clipPath id="dl"><path class="a" d="M199.034-4.973h8.932v-2.21h-3.13v-3.824l-5.8-.016ZM209-4H198v-8l7.87.023v3.821H209V-4Z"/></clipPath><clipPath id="dm"><path class="a" d="M133-93l-10.257-11.374-8.73,9.446v1.909h-4.5L107-95.52l.309-.357,13.773-15.948.15-.174h.23l18.056,0L147-103.19l-.764.657-7.181-8.451-17.363,0L108.376-95.572l1.547,1.542H113v-1.278L122.743-106l10.591,11.7,12.416.293V-93Z"/></clipPath><clipPath id="dn"><path class="a" d="M114.013-80.994h18.776l10.977-12.332-10.887.017-10.139-11.2-8.728,9.578ZM133.249-80H113V-95.308L122.743-106l10.591,11.7L146-94.325,133.249-80Z"/></clipPath><clipPath id="do"><path class="a" d="M132-80h1V-93l-1-1.5Z"/></clipPath><clipPath id="dp"><path class="a" d="M109.761-93,109-93.657,122.35-110l12.21,13.829H140v1.022h-5.881l-11.741-13.3L109.761-93"/></clipPath><clipPath id="dq"><path class="a" d="M150.04-84.012h10.92V-94.988H150.04ZM149-83h13V-96H149Z"/></clipPath><clipPath id="dr"><path class="a" d="M117.04-84.012h10.92V-94.988H117.04ZM116-83h13V-96H116Z"/></clipPath><clipPath id="ds"><path class="a" d="M165.343-94.011h16.588l1.72-1.8-12.805-15.169-17.25,0L140.367-95.572,141.9-94.03h3.389v-1L154.9-105.9ZM164.895-93l-10-11.386-8.606,9.74v1.627h-4.8L139-95.52l.307-.357L153.368-112l17.938,0L185-95.773,182.356-93Z"/></clipPath><clipPath id="dt"><path class="a" d="M146.013-80.994h18.776l10.977-12.332-10.887.017-10.139-11.2-8.727,9.578ZM145-80V-95.308L154.952-106l10.391,11.989,12.67.03L165.249-80Z"/></clipPath><clipPath id="du"><path class="a" d="M165-80h1V-93h-1Z"/></clipPath><clipPath id="dv"><path class="a" d="M142.765-93l-1.793-.7,14.36-16.3L167.68-96.171h16.4v1.022H167.238l-11.906-13.342L142.44-93.7"/></clipPath><clipPath id="dw"><path class="a" d="M90-22h61V-49H90Zm-1,1h63V-50H89Z"/></clipPath><clipPath id="dx"><path class="a" d="M200.022-11.994h17.955V-36.006H200.022ZM199-11h20V-37H199Z"/></clipPath><clipPath id="dy"><path class="a" d="M200-12.026H215V-33.974H200ZM199-11h17V-35H199Z"/></clipPath><clipPath id="dz"><path class="a" d="M196.693-40.215h15.251l11.791-14.5,12,14.246.9-.872L223.559-57.009l-15.2,0L195.364-41.516ZM235.66-39,223.749-53.141,212.433-39.224H196.274L194-41.451,207.878-58l16.162,0L238-41.27,235.66-39Z"/></clipPath><clipPath id="ea"><path class="a" d="M191.009-1.076h57.983V-3.924H191.009ZM190,0h60V-5H190Z"/></clipPath><clipPath id="eb"><path class="a" d="M84-12h97v8H84Z"/></clipPath><clipPath id="ec"><path class="a" d="M77-5H191V0H77Z"/></clipPath><clipPath id="ed"><path class="a" d="M211.079-41H195v-1h15.6l12.622-16,.779.623L211.079-41"/></clipPath><clipPath id="ee"><path class="a" d="M213.5-79.961a6.468,6.468,0,0,0-6.461,6.461,6.468,6.468,0,0,0,6.461,6.461,6.468,6.468,0,0,0,6.46-6.461A6.468,6.468,0,0,0,213.5-79.961ZM213.5-66a7.509,7.509,0,0,1-7.5-7.5,7.509,7.509,0,0,1,7.5-7.5,7.509,7.509,0,0,1,7.5,7.5,7.508,7.508,0,0,1-7.5,7.5Z"/></clipPath><clipPath id="ef"><path class="a" d="M180.782-66H79v-1H180.316l32.917-39,.767.647L180.782-66"/></clipPath><clipPath id="eg"><path class="a" d="M109-21h1V-49h-1Z"/></clipPath><clipPath id="eh"><path class="a" d="M130-21h1V-49h-1Z"/></clipPath><clipPath id="ei"><path class="a" d="M90-34h62v-1H90Z"/></clipPath><clipPath id="ej"><path class="a" d="M83.926-58,81-64.646,82.074-65,85-58.354,83.926-58"/></clipPath><clipPath id="ek"><path class="a" d="M0,0H250.217V-1H0Z"/></clipPath></defs><g transform="translate(400.346 -2128)"><g class="d" transform="translate(-379.346 2128)"><g class="e" transform="translate(-352.491 -767.717)"><path class="f" d="M28-21.732H285.1V-213H28Z" transform="translate(319.949 976.31)"/></g></g><g class="g" transform="translate(-172.523 2204.908)"><g class="h" transform="translate(-492.692 -773.769)"><path class="i" d="M250-112.269h20.192V-126H250Z" transform="translate(238.654 895.731)"/></g></g><g class="j" transform="translate(-222.41 2167.961)"><g class="h" transform="translate(-451.5 -739.846)"><path class="k" d="M199-146.192h26.654V-168H199Z" transform="translate(248.462 903.808)"/></g></g><g class="l" transform="translate(-245.02 2177.826)"><g class="h" transform="translate(-428.885 -748.731)"><path class="i" d="M171-131.962h59.769V-157H171Z" transform="translate(253.846 901.692)"/></g></g><g class="m" transform="translate(-278.246 2143.346)"><g class="h" transform="translate(-402.231 -718.846)"><path class="i" d="M138-178.654h29.077V-194H138Z" transform="translate(260.192 908.808)"/></g></g><g class="n" transform="translate(-324.956 2175.885)"><g class="h" transform="translate(-361.038 -747.115)"><path class="i" d="M87-139.615h33.923V-159H87Z" transform="translate(270 902.077)"/></g></g><g class="o" transform="translate(-276.388 2172.144)"><g class="h" transform="translate(-404.654 -743.885)"><path class="i" d="M141-151.692h13.731V-163H141Z" transform="translate(259.615 902.846)"/></g></g><g class="p" transform="translate(-287.4 2169.478)"><g class="h" transform="translate(-394.962 -741.462)"><path class="i" d="M129-155.5h12.115V-166H129Z" transform="translate(261.923 903.423)"/></g></g></g><g transform="translate(259 -1973.738)"><g class="q" transform="translate(-96 2156)"><path class="r" d="M43-4h58.034V-107H43Z"/></g><g class="s" transform="translate(-96 2156)"><path class="r" d="M67,5H78V-25.295H67Z"/></g></g><g transform="translate(417 -2203.738)"><g class="t" transform="translate(-413.269 2323.808)"><g class="h" transform="translate(-300.462 -809.308)"><path class="i" d="M12-64.231H29.769V-82H12Z" transform="translate(284.423 887.269)"/></g></g><g class="u" transform="translate(-413.269 2324.615)"><g class="h" transform="translate(-300.462 -810.115)"><path class="v" d="M12-71.308H29.769V-81H12Z" transform="translate(284.423 887.077)"/></g></g><g class="w" transform="translate(-410.846 2377.923)"><g class="h" transform="translate(-302.885 -863.423)"><path class="v" d="M15-2.077H29.538V-15H15Z" transform="translate(283.846 874.385)"/></g></g><g class="x" transform="translate(-414.077 2382.769)"><g class="h" transform="translate(-299.654 -868.269)"><path class="i" d="M11,2.308H32.808V-9H11Z" transform="translate(284.615 873.231)"/></g></g><g class="y" transform="translate(-408.423 2335.923)"><g class="h" transform="translate(-305.308 -821.423)"><path class="z" d="M18-20.154h8.885V-67H18Z" transform="translate(283.269 884.385)"/></g></g><g class="aa" transform="translate(-410.846 2373.885)"><g class="h" transform="translate(-302.885 -859.385)"><path class="z" d="M15-10.308H27.923V-20H15Z" transform="translate(283.846 875.346)"/></g></g><g class="ab" transform="translate(-411.654 2377.115)"><g class="h" transform="translate(-302.077 -862.615)"><path class="z" d="M14-2.269H29.346V-16H14Z" transform="translate(284.038 874.577)"/></g></g><g class="ac" transform="translate(-414.885 2381.961)"><g class="h" transform="translate(-298.846 -867.462)"><path class="z" d="M10,1.308H32.615V-10H10Z" transform="translate(284.808 873.423)"/></g></g><g class="ad" transform="translate(-414.077 2323.808)"><g class="h" transform="translate(-299.654 -809.308)"><path class="z" d="M11-64.231H29.577V-82H11Z" transform="translate(284.615 887.269)"/></g></g><g class="ae" transform="translate(-410.038 2347.231)"><g class="h" transform="translate(-303.692 -832.731)"><path class="z" d="M16-44.115H27.308V-53H16Z" transform="translate(283.654 881.692)"/></g></g><g class="af" transform="translate(-410.038 2335.923)"><g class="h" transform="translate(-303.692 -821.423)"><path class="z" d="M16-58.115H27.308V-67H16Z" transform="translate(283.654 884.385)"/></g></g><g class="ag" transform="translate(-412.462 2332.692)"><g class="h" transform="translate(-301.269 -818.192)"><path class="z" d="M13-62.115H29.154V-71H13Z" transform="translate(284.231 885.154)"/></g></g></g><g transform="translate(-25 182.262)"><g class="ah"><path class="ai" d="M43-4h58.034V-107H43Z"/></g><g class="aj"><path class="ai" d="M67-60H89v-47H67Z"/></g><g class="ak"><path class="ai" d="M73-33H97V-82H73Z"/></g><g class="al"><path class="ai" d="M75-5H99V-54H75Z"/></g><g class="am"><path class="an" d="M127-88h12v-13H127Z"/></g><g class="ao"><path class="an" d="M160-88h12v-13H160Z"/></g><g class="ap"><path class="i" d="M79-7H185V-70H79Z"/></g><g class="aq"><path class="i" d="M175-7h72V-107H175Z"/></g><g class="ar"><path class="i" d="M73.693-59H251v-52H73.693Z"/></g><g class="as"><path class="i" d="M79,0H185V-17H79Z"/></g><g class="at"><path class="i" d="M175,0h72V-17H175Z"/></g><g class="au"><path class="i" d="M153,4H254V-10H153Z"/></g><g class="av"><path class="i" d="M72,4H195V-10H72Z"/></g><g class="aw"><path class="ai" d="M202-61.623h21.6V-85H202Z"/></g><g class="ax"><path class="i" d="M203.873-62.669H224V-82H203.873Z"/></g><g class="ay"><path class="i" d="M207-62h17V-79H207Z"/></g><g class="az"><path class="ba" d="M208-61.978h17V-85.023H208Z"/></g><g class="bb"><path class="ai" d="M85-16h72V-54H85Z"/></g><g class="bc"><path class="ai" d="M194-6h26V-39H194Z"/></g><g class="bd"><path class="ai" d="M190-37h38.111V-63H190Z"/></g><g class="be"><path class="bf" d="M111-79h22v-22H111Z"/></g><g class="bg"><path class="bf" d="M144-79h22v-22H144Z"/></g><g class="bh"><path class="ai" d="M111,1h74V-16H111Z"/></g><g class="bi"><path class="ai" d="M100,4h95V-10H100Z"/></g><g class="bj"><path class="ai" d="M171-7h14V-70H171Z"/></g><g class="bk"><path class="ai" d="M80-57H188V-69H80Z"/></g><g class="bl"><path class="ai" d="M175-57h72v-49.015H175Z"/></g><g class="bm"><path class="ai" d="M73-61.623H218.5V-111H73Z"/></g><g class="bn"><path class="i" d="M108-75h41v-34.882H108Z"/></g><g class="bo"><path class="i" d="M102.507-89H151v-27.49H102.507Z"/></g><g class="bp"><path class="i" d="M134.5-88.777h54.583V-117H134.5Z"/></g><g class="bq"><path class="i" d="M141-75h41v-35H141Z"/></g><g class="br"><path class="bs" d="M128-76h21V-99H128Z"/></g><g class="bt"><path class="ai" d="M112-79h21v-21H112Z"/></g><g class="bu"><path class="ai" d="M144-79h22v-21H144Z"/></g><g class="bv"><path class="ai" d="M160-76h22V-98.981H160Z"/></g><g class="bw"><path class="ba" d="M111-78h12v-22H111Z"/></g><g class="bx"><path class="ba" d="M111-89h22v-11H111Z"/></g><g class="by"><path class="ba" d="M144-78h12v-22H144Z"/></g><g class="bz"><path class="ba" d="M144-89h22v-11H144Z"/></g><g class="ca"><path class="ai" d="M116.362-91H151v-26H116.362Z"/></g><g class="cb"><path class="ai" d="M149.5-90.492h39.583V-116H149.5Z"/></g><g class="cc"><path class="ba" d="M102.487-16.525H144V-54H102.487Z"/></g><g class="cd"><path class="ba" d="M87.734-16.525H130V-54H87.734Z"/></g><g class="ce"><path class="ba" d="M84-16.525h39V-54H84Z"/></g><g class="cf"><path class="ba" d="M95-16.525h42V-54H95Z"/></g><g class="cg"><path class="ba" d="M84-35h19V-54H84Z"/></g><g class="ch"><path class="ba" d="M84-22h32V-54H84Z"/></g><g class="ci"><path class="ba" d="M84-28h26V-54H84Z"/></g><g class="cj"><path class="ba" d="M84-42H96V-54H84Z"/></g><g class="ck"><path class="ba" d="M108.691-16.525H150V-54H108.691Z"/></g><g class="cl"><path class="ba" d="M135-16h22V-38H135Z"/></g><g class="cm"><path class="ba" d="M141-16h15V-31H141Z"/></g><g class="cn"><path class="ba" d="M121-16h35V-51H121Z"/></g><g class="co"><path class="ba" d="M128.5-16.525H157V-44H128.5Z"/></g><g class="cp"><path class="ba" d="M114.687-16.525H156V-54H114.687Z"/></g><g class="cq"><path class="ai" d="M193,0h17V-17H193Z"/></g><g class="cr"><path class="ai" d="M198,0h15V-13H198Z"/></g><g class="cs"><path class="ai" d="M128-75h23V-99H128Z"/></g><g class="ct"><path class="ba" d="M85-42h72V-54H85Z"/></g><g class="cu"><path class="ba" d="M85-16H97V-54H85Z"/></g><g class="cv"><path class="i" d="M20,4H47V-10H20Z"/></g><g class="cw"><path class="cx" d="M194-26h26V-39H194Z"/></g><g class="cy"><path class="ba" d="M207-7h13V-39H207Z"/></g><g class="cz"><path class="da" d="M43-4H90V-109H43Z"/></g><g class="db"><path class="da" d="M67,5H78V-25.295H67Z"/></g><g class="dc"><path class="da" d="M138.075-101H154v-11H138.075Z"/></g><g class="dd"><path class="da" d="M79-6H186V-70H79Z"/></g><g class="de"><path class="da" d="M175-6h73V-107H175Z"/></g><g class="df"><path class="da" d="M73-59H252v-53H73Z"/></g><g class="dg"><path class="da" d="M175,1h73V-17H175Z"/></g><g class="dh"><path class="da" d="M200-2h32V-17H200Z"/></g><g class="di"><path class="da" d="M203,1h32V-13H203Z"/></g><g class="dj"><path class="da" d="M193,1h21V-17H193Z"/></g><g class="dk"><path class="da" d="M102-88h50v-29H102Z"/></g><g class="dl"><path class="da" d="M108-75h43v-36H108Z"/></g><g class="dm"><path class="da" d="M127-75h11V-99.5H127Z"/></g><g class="dn"><path class="da" d="M104-88h41v-27H104Z"/></g><g class="do"><path class="da" d="M144-78h23v-23H144Z"/></g><g class="dp"><path class="da" d="M111-78h23v-23H111Z"/></g><g class="dq"><path class="da" d="M134-88h56v-29H134Z"/></g><g class="dr"><path class="da" d="M140-75h43.013v-36H140Z"/></g><g class="ds"><path class="da" d="M160-75h11V-98H160Z"/></g><g class="dt"><path class="da" d="M135.972-88h53.111v-27H135.972Z"/></g><g class="du"><path class="da" d="M84-16h73V-55H84Z"/></g><g class="dv"><path class="da" d="M194-6h30V-42H194Z"/></g><g class="dw"><path class="dx" d="M194-6h27V-40H194Z"/></g><g class="dy"><path class="da" d="M189-34h54V-63H189Z"/></g><g class="dz"><path class="da" d="M185,5h70V-10H185Z"/></g><g class="ea"><g transform="translate(84 -12)"><path class="eb" d="M0,0H97V8H0Z"/></g></g><g class="ec"><g transform="translate(77 -5)"><path class="eb" d="M0,0H114V5H0Z"/></g></g><g class="ed"><path class="da" d="M190-36h39V-63H190Z"/></g><g class="ee"><path class="da" d="M201-61h25V-86H201Z"/></g><g class="ef"><path class="da" d="M74-61H219v-50H74Z"/></g><g class="eg"><path class="da" d="M104-16h11V-54H104Z"/></g><g class="eh"><path class="da" d="M125-16h11V-54H125Z"/></g><g class="ei"><path class="da" d="M85-29h72V-40H85Z"/></g><g class="ej"><path class="da" d="M76-53H90V-70H76Z"/></g><g class="ek" transform="translate(42)"><path class="z" d="M-5,5H253.341V-6H-5Z" transform="translate(0.938)"/></g></g></svg>