<?xml version="1.0" encoding="UTF-8"?>
<svg width="6px" height="10px" viewBox="0 0 6 10" version="1.1" xmlns="http://www.w3.org/2000/svg" xmlns:xlink="http://www.w3.org/1999/xlink">
    <title>Fill 1 Copy</title>
    <g id="12.28" stroke="none" stroke-width="1" fill="none" fill-rule="evenodd">
        <g id="Territories-List" transform="translate(-783.000000, -1450.000000)" fill="#142651">
            <g id="Group-6" transform="translate(120.000000, 559.000000)">
                <g id="Group-5" transform="translate(663.000000, 886.000000)">
                    <path d="M-2,8.05606258 C-2,7.78487614 -1.89476454,7.52411995 -1.69481715,7.31551499 C-1.28439884,6.90873533 -0.610891871,6.90873533 -0.20047356,7.31551499 L2.99868456,10.4758801 L6.19784267,7.30508475 C6.60826098,6.89830508 7.28176796,6.89830508 7.69218627,7.30508475 C8.10260458,7.71186441 8.10260458,8.37940026 7.69218627,8.78617992 L3.74585635,12.6975228 C3.54590897,12.8956975 3.28282031,13 2.99868456,13 C2.7145488,13 2.45146014,12.8852673 2.25151276,12.6975228 L-1.69481715,8.79661017 C-1.89476454,8.58800522 -2,8.31681877 -2,8.05606258" id="Fill-1-Copy" transform="translate(3.000000, 10.000000) rotate(90.000000) translate(-3.000000, -10.000000) "></path>
                </g>
            </g>
        </g>
    </g>
</svg>