<?xml version="1.0" encoding="UTF-8"?>
<svg width="25px" height="25px" viewBox="0 0 25 25" version="1.1" xmlns="http://www.w3.org/2000/svg" xmlns:xlink="http://www.w3.org/1999/xlink">
    <title>add-B</title>
    <g id="Page-1" stroke="none" stroke-width="1" fill="none" fill-rule="evenodd">
        <g id="rpm-wo" transform="translate(-741.000000, -2223.000000)" fill="#002F65" fill-rule="nonzero">
            <g id="Group-3" transform="translate(500.000000, 2000.000000)">
                <g id="noun_List_1654834" transform="translate(241.000000, 223.000000)">
                    <path d="M8.8172043,23.3870968 L24.2473118,23.3870968 C24.6612903,23.3870968 25,23.0967742 25,22.7419355 L25,21.6129032 C25,21.2580645 24.6612903,20.9677419 24.2473118,20.9677419 L8.8172043,20.9677419 C8.40322581,20.9677419 8.06451613,21.2580645 8.06451613,21.6129032 L8.06451613,22.7419355 C8.06451613,23.0967742 8.40322581,23.3870968 8.8172043,23.3870968 Z" id="Path"></path>
                    <path d="M8.8172043,13.7096774 L24.2473118,13.7096774 C24.6612903,13.7096774 25,13.4193548 25,13.0645161 L25,11.9354839 C25,11.5806452 24.6612903,11.2903226 24.2473118,11.2903226 L8.8172043,11.2903226 C8.40322581,11.2903226 8.06451613,11.5806452 8.06451613,11.9354839 L8.06451613,13.0645161 C8.06451613,13.4193548 8.40322581,13.7096774 8.8172043,13.7096774 C8.8172043,13.7096774 8.8172043,13.7096774 8.8172043,13.7096774 Z" id="Path"></path>
                    <path d="M8.8172043,4.03225806 L24.2473118,4.03225806 C24.6612903,4.03225806 25,3.74193548 25,3.38709677 L25,2.25806452 C25,1.90322581 24.6612903,1.61290323 24.2473118,1.61290323 L8.8172043,1.61290323 C8.40322581,1.61290323 8.06451613,1.90322581 8.06451613,2.25806452 L8.06451613,3.38709677 C8.06451613,3.74193548 8.40322581,4.03225806 8.8172043,4.03225806 C8.8172043,4.03225806 8.8172043,4.03225806 8.8172043,4.03225806 Z" id="Path"></path>
                    <circle id="Oval" cx="2.82258065" cy="22.1774194" r="2.82258065"></circle>
                    <circle id="Oval" cx="2.82258065" cy="12.5" r="2.82258065"></circle>
                    <circle id="Oval" cx="2.82258065" cy="2.82258065" r="2.82258065"></circle>
                </g>
            </g>
        </g>
    </g>
</svg>