<svg xmlns="http://www.w3.org/2000/svg" width="15" height="15" viewBox="0 0 15 15"><defs><style>.a{fill:#fff;}.b{fill:#002f65;}</style></defs><g transform="translate(-1052 -517)"><circle class="a" cx="7.5" cy="7.5" r="7.5" transform="translate(1052 517)"/><g transform="translate(1052 517)"><path class="b" d="M7.5,15A7.5,7.5,0,1,1,15,7.5,7.508,7.508,0,0,1,7.5,15ZM7.5.577A6.923,6.923,0,1,0,14.423,7.5,6.931,6.931,0,0,0,7.5.577Z" transform="translate(0 0)"/><g transform="translate(6.827 3.33)"><path class="b" d="M192.116,84.582a.673.673,0,0,1-1.346,0,.662.662,0,0,1,.679-.679A.645.645,0,0,1,192.116,84.582Zm-1.21,7.652V86.26h1.086v5.973Z" transform="translate(-190.77 -83.903)"/></g></g></g></svg>