<?xml version="1.0" encoding="UTF-8"?>
<svg width="28px" height="25px" viewBox="0 0 28 25" version="1.1" xmlns="http://www.w3.org/2000/svg" xmlns:xlink="http://www.w3.org/1999/xlink">
    <title>reset</title>
    <g id="Page-1" stroke="none" stroke-width="1" fill="none" fill-rule="evenodd">
        <g id="rpm-wo" transform="translate(-740.000000, -2007.000000)" fill="#002F65" fill-rule="nonzero">
            <g id="Group-3" transform="translate(500.000000, 2000.000000)">
                <g id="reset" transform="translate(240.000000, 7.000000)">
                    <path d="M2.22154117,10.0854718 L0.104761472,5.89222842 C-0.0491660437,5.58851307 -0.0325178436,5.22412256 0.148434857,4.93631927 C0.329387557,4.64851597 0.647153737,4.48102407 0.98203395,4.49693613 C1.31691416,4.5128482 1.61803214,4.70974681 1.77195964,5.01346216 L2.8771809,7.21037781 C5.06605032,2.48696858 9.88806512,-0.366965153 14.9954828,0.038099831 C20.1029004,0.443164815 24.4342839,4.02304684 25.8807692,9.03477298 C25.9925248,9.52980104 25.7048017,10.0274362 25.2259496,10.1673244 C24.7470976,10.3072126 24.2446488,10.0404123 24.0824431,9.56012237 C22.847876,5.29135943 19.1467314,2.25100087 14.7939836,1.9299837 C10.4412359,1.60896652 6.34964233,4.07460698 4.52564651,8.11779949 L7.59778697,7.02889347 C7.91400761,6.91627992 8.26511924,6.98426401 8.51886151,7.20723681 C8.77260378,7.43020961 8.89042719,7.77429623 8.82794881,8.10988259 C8.76547043,8.44546894 8.53218221,8.72157147 8.21596157,8.83418503 L3.35486128,10.5917175 C3.25536688,10.6048128 3.15463466,10.6048128 3.05514026,10.5917175 C2.70654534,10.5943196 2.38537584,10.399273 2.22154117,10.0854718 Z M27.9038861,19.0832741 L25.7964726,14.8422717 C25.5706832,14.4267872 25.0798183,14.2436453 24.64442,14.4124404 L19.792686,16.1508693 C19.3038512,16.3249548 19.0459555,16.8702072 19.2166597,17.3687247 C19.3873638,17.8672422 19.9220258,18.1302463 20.4108606,17.9561609 L23.4923673,16.8577031 C21.6854859,20.9343853 17.5729446,23.424906 13.1982326,23.0917452 C8.82352052,22.7585843 5.11931428,19.6727709 3.92620447,15.3676211 C3.75880698,14.8976133 3.2642843,14.6388202 2.79226006,14.7742067 C2.32023582,14.9095931 2.03049338,15.3933298 2.12787836,15.8834187 C3.53569579,20.9294882 7.87256726,24.5502084 13.0011941,24.9612146 C18.129821,25.3722208 22.9680354,22.4867885 25.1314666,17.7269175 L26.2366879,19.933385 C26.3953998,20.2545928 26.7175919,20.4576442 27.070287,20.4587344 C27.2169089,20.4578378 27.3612765,20.421849 27.4917697,20.3536645 C27.9456347,20.1154668 28.1289062,19.5505141 27.9038861,19.0832741 Z" id="Shape"></path>
                </g>
            </g>
        </g>
    </g>
</svg>