<?xml version="1.0" encoding="UTF-8"?>
<svg width="20px" height="20px" viewBox="0 0 20 20" version="1.1" xmlns="http://www.w3.org/2000/svg" xmlns:xlink="http://www.w3.org/1999/xlink">
    <title>search</title>
    <g id="Page-1" stroke="none" stroke-width="1" fill="none" fill-rule="evenodd">
        <g id="rpm-wo" transform="translate(-507.000000, -2009.000000)" fill="#002F65">
            <g id="Group-3" transform="translate(500.000000, 2000.000000)">
                <g id="search" transform="translate(7.000000, 9.000000)">
                    <path d="M19.740783,17.9287043 L14.3416301,12.529968 C15.2766277,11.230388 15.8332929,9.64039208 15.8332929,7.91664647 C15.8332929,3.54415763 12.2887187,0 7.91664647,0 C3.54457429,0 0,3.54415763 0,7.91664647 C0,12.2891353 3.54457429,15.8332929 7.91664647,15.8332929 C9.63997541,15.8332929 11.2295547,15.2766277 12.5291347,14.3416301 L17.9287043,19.7411996 C18.0987038,19.9120325 18.3216199,19.9982823 18.5412027,19.9999749 C18.7553688,20.0016156 18.9674516,19.9228658 19.1282845,19.7616163 L19.7616163,19.1282845 C19.9245325,18.965785 20.003699,18.7499522 20.0000762,18.5324527 C19.9957823,18.3162033 19.9091159,18.0974538 19.740783,17.9287043 Z M1.56249601,7.91664647 C1.56249601,4.41290541 4.41332208,1.56249601 7.91664647,1.56249601 C11.4199709,1.56249601 14.2707969,4.41290541 14.2707969,7.91664647 C14.2707969,11.4203875 11.4199709,14.2707969 7.91664647,14.2707969 C4.41332208,14.2707969 1.56249601,11.4203875 1.56249601,7.91664647 L1.56249601,7.91664647 Z" id="Fill-32"></path>
                </g>
            </g>
        </g>
    </g>
</svg>