<?xml version="1.0" encoding="UTF-8"?>
<svg width="28px" height="28px" viewBox="0 0 28 28" version="1.1" xmlns="http://www.w3.org/2000/svg" xmlns:xlink="http://www.w3.org/1999/xlink">
    <title>square-feet</title>
    <g id="Page-1" stroke="none" stroke-width="1" fill="none" fill-rule="evenodd">
        <g id="rpm-wo" transform="translate(-505.000000, -2221.000000)" fill="#002F65" fill-rule="nonzero">
            <g id="Group-3" transform="translate(500.000000, 2000.000000)">
                <g id="square-feet" transform="translate(5.000000, 221.000000)">
                    <path d="M27.8156407,26.9391418 L1.06085823,0.184359335 C0.883530024,0.00392010509 0.6159822,-0.0489672555 0.382655609,0.0474744021 C0.152440039,0.14391606 0,0.371020608 0,0.623013326 L0,27.3777958 C0,27.7200081 0.279991909,28 0.622204243,28 L27.3769867,28 C27.6289794,28 27.8560839,27.84756 27.9525256,27.6173444 C28.0489673,27.3840178 27.9960799,27.11647 27.8156407,26.9391418 Z M1.24440849,26.7555915 L1.24440849,2.12563657 L5.04607641,5.92730449 L3.48123274,7.49214816 C3.23857308,7.73480782 3.23857308,8.12990751 3.48123274,8.37256717 C3.60256256,8.493897 3.76122465,8.55611742 3.91988673,8.55611742 C4.07854881,8.55611742 4.23721089,8.493897 4.35854072,8.37256717 L5.92338439,6.8077235 L9.00329539,9.8876345 L7.43845172,11.4524782 C7.19579207,11.6951378 7.19579207,12.0902375 7.43845172,12.3328972 C7.55978155,12.454227 7.71844363,12.5164474 7.87710571,12.5164474 C8.03576779,12.5164474 8.19442987,12.454227 8.3157597,12.3328972 L9.88060337,10.7680535 L12.9605144,13.8479645 L11.3956707,15.4128082 C11.153011,15.6554678 11.153011,16.0505675 11.3956707,16.2932272 C11.5170005,16.414557 11.6756626,16.4767774 11.8343247,16.4767774 C11.9929868,16.4767774 12.1516489,16.414557 12.2729787,16.2932272 L13.8378224,14.7283835 L16.9177334,17.8082945 L15.3528897,19.3731382 C15.11023,19.6157978 15.11023,20.0108975 15.3528897,20.2535572 C15.4742195,20.374887 15.6328816,20.4371074 15.7915437,20.4371074 C15.9502058,20.4371074 16.1088678,20.374887 16.2301977,20.2535572 L17.7950413,18.6887135 L20.8749523,21.7686245 L19.3101087,23.3334682 C19.067449,23.5761278 19.067449,23.9712275 19.3101087,24.2138872 C19.4314385,24.335217 19.5901006,24.3974374 19.7487627,24.3974374 C19.9074247,24.3974374 20.0660868,24.335217 20.1874167,24.2138872 L21.7522603,22.6490435 L25.8743634,26.7555915 L1.24440849,26.7555915 Z M5.41628793,12.6284442 C5.23895972,12.451116 4.9714119,12.3982286 4.73808531,12.4946703 C4.50786974,12.5880009 4.3554297,12.8151055 4.3554297,13.0670982 L4.3554297,23.0223661 C4.3554297,23.3645784 4.63542161,23.6445703 4.97763394,23.6445703 L14.9329018,23.6445703 C15.1848945,23.6445703 15.4119991,23.4921303 15.5084407,23.2619147 C15.6048824,23.0285881 15.551995,22.7610403 15.3746668,22.5837121 L5.41628793,12.6284442 Z M5.59983818,22.4001618 L5.59983818,14.5697214 L13.4302786,22.4001618 L5.59983818,22.4001618 Z" id="Shape"></path>
                </g>
            </g>
        </g>
    </g>
</svg>